<?xml version="1.0" encoding="utf-8"?>
<!-- Generator: Adobe Illustrator 19.0.0, SVG Export Plug-In . SVG Version: 6.00 Build 0)  -->
<svg version="1.1" id="Layer_1" xmlns="http://www.w3.org/2000/svg" xmlns:xlink="http://www.w3.org/1999/xlink" x="0px" y="0px"
	 viewBox="0 0 320 80" style="enable-background:new 0 0 320 80;" xml:space="preserve">
<style type="text/css">
	.st0{fill:#064D96;}
	.st1{fill:#FB9D2B;}
	.st2{fill:#5A9732;}
	.st3{fill:#E91C2A;}
</style>
<g>
	<path id="XMLID_8_" class="st0" d="M149.3,18.9c-5.4,0-10.4,1.8-14.4,4.9c0.1-0.5,0.2-1,0.2-1.5c0-3.8-3.1-6.9-6.9-6.9
		c-3.8,0-6.9,3.1-6.9,6.9s3.1,6.9,6.9,6.9c0.6,0,1.2-0.1,1.8-0.2c-2.7,3.8-4.3,8.5-4.3,13.6c0,8.6,4.6,16.1,11.4,20.2
		c-2.9-3.9-4.5-8.7-4.5-13.9c0-13,10.6-23.6,23.6-23.6c4.5,0,8.6,1.2,12.2,3.4C164.1,22.7,157.2,18.9,149.3,18.9z"/>
	<path id="XMLID_7_" class="st1" d="M180.4,28.8c-0.5-5.4-2.7-10.2-6.1-13.9c0.5,0.1,1,0.1,1.5,0c3.8-0.3,6.6-3.7,6.3-7.5
		c-0.3-3.8-3.7-6.6-7.5-6.3c-3.8,0.3-6.6,3.7-6.3,7.5c0.1,0.6,0.2,1.2,0.4,1.8c-4.1-2.4-8.8-3.5-13.9-3.1
		c-8.5,0.7-15.6,5.9-19.2,13.1c3.6-3.2,8.3-5.3,13.5-5.7c13-1.1,24.4,8.5,25.6,21.5c0.4,4.5-0.5,8.7-2.3,12.5
		C177.9,43.9,181.1,36.6,180.4,28.8z"/>
	<path id="XMLID_6_" class="st2" d="M170.8,60.2c5.4-0.3,10.3-2.3,14.1-5.6c-0.1,0.5-0.1,1-0.1,1.5c0.2,3.8,3.4,6.8,7.2,6.6
		c3.8-0.2,6.8-3.4,6.6-7.2c-0.2-3.8-3.4-6.8-7.2-6.6c-0.6,0-1.2,0.1-1.8,0.3c2.5-4,3.9-8.7,3.6-13.7c-0.4-8.6-5.3-15.9-12.4-19.7
		c3,3.8,4.9,8.5,5.2,13.7c0.6,13-9.5,24.1-22.5,24.7c-4.5,0.2-8.7-0.8-12.4-2.8C155.9,57.1,163,60.6,170.8,60.2z"/>
	<path id="XMLID_5_" class="st3" d="M139.3,51.5c0.8,5.4,3.3,10,6.8,13.6c-0.5,0-1,0-1.5,0c-3.8,0.5-6.4,4-5.9,7.8s4,6.4,7.8,5.9
		c3.8-0.5,6.4-4,5.9-7.8c-0.1-0.6-0.3-1.2-0.5-1.7c4.2,2.1,9,3.1,14,2.3c8.5-1.2,15.3-6.8,18.4-14.1c-3.5,3.4-8,5.7-13.2,6.4
		c-12.9,1.8-24.9-7.2-26.7-20.1c-0.6-4.4,0-8.7,1.7-12.6C141.1,36.3,138.3,43.7,139.3,51.5z"/>
	<g>
		<path d="M161.9,46.5V32.7h4.8c1.2,0,2.1,0.1,2.6,0.4c0.5,0.2,1,0.7,1.3,1.3c0.3,0.6,0.5,1.3,0.5,2.2c0,1.1-0.3,2-0.8,2.6
			c-0.5,0.7-1.3,1.1-2.2,1.2c0.5,0.4,0.9,0.7,1.2,1.2c0.3,0.4,0.8,1.2,1.3,2.2l1.4,2.7h-2.7l-1.7-3c-0.6-1.1-1-1.8-1.2-2
			c-0.2-0.3-0.4-0.5-0.7-0.6s-0.6-0.2-1.2-0.2h-0.5v5.8L161.9,46.5L161.9,46.5z M164.2,38.5h1.7c1,0,1.7,0,2-0.1
			c0.3-0.1,0.5-0.3,0.7-0.6c0.2-0.3,0.3-0.6,0.3-1.1c0-0.4-0.1-0.8-0.3-1.1c-0.2-0.3-0.4-0.5-0.7-0.6C167.6,35,167,35,166,35h-1.8
			L164.2,38.5L164.2,38.5z"/>
	</g>
	<g>
		<path d="M157.9,46.5v-5.8h-0.5c-0.5,0-0.9,0.1-1.2,0.2c-0.2,0.1-0.5,0.3-0.7,0.6c-0.2,0.3-0.6,1-1.2,2l-1.7,3H150l1.4-2.7
			c0.6-1.1,1-1.8,1.3-2.2c0.3-0.4,0.7-0.8,1.2-1.2c-1-0.2-1.7-0.6-2.2-1.2c-0.5-0.7-0.8-1.5-0.8-2.6c0-0.9,0.2-1.6,0.5-2.2
			c0.3-0.6,0.8-1,1.3-1.3c0.5-0.2,1.4-0.4,2.6-0.4h4.8v13.8L157.9,46.5L157.9,46.5z M157.9,35h-1.8c-1,0-1.6,0-1.9,0.1
			c-0.3,0.1-0.5,0.3-0.7,0.6c-0.2,0.3-0.3,0.6-0.3,1.1c0,0.5,0.1,0.8,0.3,1.1c0.2,0.3,0.4,0.5,0.7,0.6c0.3,0.1,0.9,0.1,2,0.1h1.7V35
			z"/>
	</g>
</g>
<g id="XMLID_9_">
</g>
<g id="XMLID_10_">
</g>
<g id="XMLID_11_">
</g>
<g id="XMLID_12_">
</g>
<g id="XMLID_13_">
</g>
<g id="XMLID_14_">
</g>
</svg>
