<?xml version="1.0" encoding="utf-8"?>
<!-- Generator: Adobe Illustrator 16.0.0, SVG Export Plug-In . SVG Version: 6.00 Build 0)  -->
<!DOCTYPE svg PUBLIC "-//W3C//DTD SVG 1.1//EN" "http://www.w3.org/Graphics/SVG/1.1/DTD/svg11.dtd">
<svg version="1.1" id="Layer_1" xmlns="http://www.w3.org/2000/svg" xmlns:xlink="http://www.w3.org/1999/xlink" x="0px" y="0px"
	 width="320px" height="90px" viewBox="0 0 320 90" enable-background="new 0 0 320 90" xml:space="preserve">
<g>
	<path fill="#064D96" d="M26.235,26.872c-4.577,0-8.791,1.542-12.159,4.13c0.089-0.408,0.139-0.83,0.139-1.264
		c0-3.231-2.62-5.852-5.852-5.852c-3.232,0-5.852,2.62-5.852,5.852s2.62,5.851,5.852,5.851c0.522,0,1.028-0.069,1.509-0.197
		c-2.278,3.246-3.62,7.196-3.62,11.462c0,7.255,3.867,13.606,9.652,17.106c-2.413-3.301-3.84-7.369-3.84-11.772
		c0-11.036,8.946-19.982,19.982-19.982c3.78,0,7.316,1.05,10.33,2.875C38.742,30.105,32.867,26.872,26.235,26.872z"/>
	<path fill="#FB9D2B" d="M52.535,35.259c-0.393-4.56-2.292-8.625-5.16-11.759c0.414,0.055,0.839,0.067,1.272,0.029
		c3.219-0.277,5.604-3.113,5.327-6.333c-0.278-3.22-3.113-5.605-6.333-5.327c-3.219,0.277-5.604,3.113-5.326,6.333
		c0.045,0.52,0.157,1.018,0.326,1.486c-3.43-1.99-7.481-2.987-11.731-2.621c-7.229,0.624-13.224,5.022-16.215,11.086
		c3.083-2.688,7.013-4.46,11.4-4.838c10.995-0.948,20.677,7.196,21.625,18.191c0.325,3.767-0.418,7.379-1.977,10.539
		C50.388,47.999,53.105,41.868,52.535,35.259z"/>
	<path fill="#5A9732" d="M44.416,61.799c4.571-0.216,8.708-1.953,11.952-4.697c-0.071,0.411-0.1,0.835-0.079,1.269
		c0.152,3.229,2.892,5.723,6.12,5.569c3.229-0.15,5.722-2.891,5.569-6.119c-0.151-3.227-2.892-5.721-6.12-5.57
		c-0.521,0.025-1.023,0.118-1.498,0.27c2.123-3.351,3.276-7.359,3.076-11.62c-0.342-7.247-4.503-13.41-10.446-16.635
		c2.565,3.186,4.182,7.182,4.39,11.58c0.519,11.024-7.997,20.381-19.02,20.9c-3.777,0.178-7.357-0.705-10.454-2.387
		C31.77,59.155,37.79,62.111,44.416,61.799z"/>
	<path fill="#E91C2A" d="M17.779,54.438c0.639,4.531,2.753,8.488,5.786,11.465c-0.416-0.034-0.841-0.023-1.271,0.038
		c-3.2,0.451-5.429,3.41-4.978,6.61c0.451,3.2,3.411,5.428,6.61,4.979c3.2-0.451,5.429-3.411,4.979-6.61
		c-0.074-0.518-0.212-1.009-0.406-1.468c3.531,1.803,7.63,2.58,11.854,1.985c7.184-1.012,12.934-5.727,15.594-11.944
		c-2.934,2.851-6.763,4.831-11.123,5.446c-10.928,1.539-21.035-6.071-22.574-17c-0.527-3.744,0.021-7.391,1.406-10.63
		C19.237,41.601,16.854,47.87,17.779,54.438z"/>
	<g>
		<path fill="#FFFFFF" d="M36.881,50.203V38.51h4.076c1.042,0,1.787,0.105,2.234,0.315c0.446,0.21,0.813,0.574,1.1,1.093
			s0.431,1.139,0.431,1.863c0,0.914-0.219,1.651-0.658,2.209c-0.438,0.559-1.062,0.909-1.871,1.053
			c0.415,0.297,0.758,0.623,1.029,0.977c0.271,0.354,0.642,0.987,1.109,1.902l1.165,2.281h-2.309l-1.401-2.545
			c-0.504-0.92-0.847-1.495-1.027-1.727c-0.181-0.23-0.372-0.39-0.574-0.478c-0.202-0.088-0.526-0.132-0.973-0.132h-0.398v4.881
			H36.881z M38.812,43.455h1.435c0.877,0,1.436-0.038,1.675-0.115s0.434-0.232,0.583-0.467c0.148-0.234,0.223-0.545,0.223-0.933
			c0-0.372-0.075-0.671-0.223-0.897c-0.149-0.226-0.351-0.381-0.606-0.466c-0.181-0.059-0.705-0.088-1.571-0.088h-1.515V43.455z"/>
	</g>
	<g>
		<path fill="#FFFFFF" d="M33.482,50.203v-4.881h-0.399c-0.446,0-0.771,0.043-0.973,0.132c-0.202,0.088-0.394,0.248-0.574,0.478
			c-0.181,0.231-0.523,0.807-1.027,1.727l-1.401,2.545h-2.31l1.165-2.281c0.468-0.915,0.838-1.548,1.109-1.902
			c0.271-0.354,0.614-0.679,1.029-0.977c-0.809-0.144-1.432-0.495-1.87-1.053c-0.439-0.558-0.658-1.295-0.658-2.209
			c0-0.724,0.144-1.344,0.431-1.863c0.288-0.519,0.654-0.883,1.101-1.093c0.446-0.21,1.19-0.315,2.233-0.315h4.076v11.693H33.482z
			 M33.482,40.488h-1.516c-0.867,0-1.391,0.029-1.572,0.088c-0.255,0.085-0.457,0.241-0.606,0.466
			c-0.148,0.226-0.223,0.526-0.223,0.897c0,0.388,0.075,0.699,0.223,0.933c0.149,0.234,0.343,0.39,0.583,0.467
			s0.798,0.115,1.675,0.115h1.436V40.488z"/>
	</g>
</g>
<g>
	<path fill="#FFFFFF" d="M84.545,34.521v0.325c-0.673,0.046-1.109,0.158-1.309,0.338s-0.299,0.592-0.299,1.236v5.604
		c0,0.918,0.125,1.634,0.376,2.147c0.467,0.936,1.354,1.403,2.66,1.403c1.432,0,2.393-0.479,2.883-1.437
		c0.273-0.536,0.411-1.363,0.411-2.481v-4.56c0-0.952-0.114-1.55-0.342-1.792c-0.229-0.243-0.662-0.395-1.3-0.458v-0.325h4.055
		v0.325c-0.679,0.074-1.122,0.238-1.33,0.492c-0.208,0.254-0.312,0.84-0.312,1.758v4.56c0,1.209-0.185,2.153-0.556,2.832
		c-0.685,1.249-1.985,1.874-3.901,1.874c-1.894,0-3.183-0.616-3.867-1.848c-0.371-0.662-0.556-1.534-0.556-2.618V36.42
		c0-0.639-0.099-1.048-0.295-1.228s-0.626-0.295-1.287-0.347v-0.325H84.545z"/>
	<path fill="#FFFFFF" d="M92.304,45.873c0.405-0.051,0.689-0.152,0.851-0.304c0.163-0.151,0.244-0.489,0.244-1.014v-4.346
		c0-0.362-0.034-0.617-0.103-0.764c-0.108-0.215-0.331-0.323-0.667-0.323c-0.051,0-0.104,0.003-0.158,0.009
		s-0.121,0.014-0.201,0.025v-0.299c0.234-0.068,0.787-0.245,1.66-0.53l0.804-0.265c0.04,0,0.064,0.014,0.073,0.042
		c0.008,0.029,0.013,0.069,0.013,0.12v1.257c0.524-0.49,0.934-0.827,1.229-1.009c0.444-0.279,0.905-0.419,1.383-0.419
		c0.387,0,0.74,0.111,1.059,0.334c0.615,0.433,0.922,1.206,0.922,2.318v3.995c0,0.411,0.082,0.708,0.246,0.89
		c0.164,0.183,0.438,0.277,0.823,0.282v0.24h-3.653v-0.24c0.417-0.057,0.707-0.172,0.873-0.346s0.248-0.552,0.248-1.133V40.74
		c0-0.491-0.091-0.897-0.272-1.219c-0.182-0.322-0.516-0.483-1.004-0.483c-0.334,0-0.675,0.114-1.021,0.342
		c-0.193,0.131-0.443,0.348-0.749,0.65v4.791c0,0.411,0.091,0.686,0.274,0.826c0.183,0.14,0.471,0.215,0.864,0.227v0.24h-3.738
		V45.873z"/>
	<path fill="#FFFFFF" d="M101.089,45.873c0.61-0.057,0.995-0.161,1.155-0.312c0.16-0.151,0.24-0.561,0.24-1.228v-4.081
		c0-0.371-0.026-0.627-0.077-0.77c-0.085-0.234-0.265-0.351-0.539-0.351c-0.063,0-0.124,0.006-0.184,0.017
		c-0.06,0.011-0.232,0.057-0.518,0.137v-0.265l0.368-0.12c0.998-0.325,1.694-0.57,2.087-0.736c0.16-0.068,0.262-0.103,0.308-0.103
		c0.012,0.04,0.017,0.083,0.017,0.128v6.142c0,0.65,0.079,1.058,0.235,1.223c0.157,0.166,0.512,0.271,1.065,0.316v0.24h-4.157
		V45.873z M102.449,34.434c0.171-0.176,0.382-0.264,0.633-0.264c0.245,0,0.455,0.087,0.629,0.26
		c0.174,0.173,0.261,0.385,0.261,0.634c0,0.244-0.087,0.453-0.261,0.626c-0.174,0.173-0.384,0.259-0.629,0.259
		c-0.251,0-0.462-0.086-0.633-0.259c-0.171-0.173-0.256-0.382-0.256-0.626S102.278,34.61,102.449,34.434z"/>
	<path fill="#FFFFFF" d="M110.072,38.225v0.616h-1.745l-0.017,4.928c0,0.433,0.037,0.761,0.111,0.983
		c0.137,0.394,0.405,0.59,0.804,0.59c0.206,0,0.384-0.048,0.535-0.146c0.151-0.097,0.324-0.25,0.518-0.462l0.223,0.188l-0.188,0.256
		c-0.296,0.399-0.61,0.682-0.941,0.848c-0.331,0.165-0.65,0.247-0.958,0.247c-0.673,0-1.129-0.299-1.369-0.898
		c-0.131-0.325-0.197-0.775-0.197-1.352v-5.184h-0.933c-0.028-0.017-0.05-0.034-0.064-0.051s-0.021-0.04-0.021-0.068
		c0-0.057,0.013-0.101,0.039-0.133c0.025-0.031,0.107-0.104,0.244-0.218c0.394-0.325,0.677-0.589,0.851-0.792
		c0.174-0.203,0.583-0.737,1.228-1.604c0.074,0,0.119,0.006,0.133,0.017c0.014,0.012,0.021,0.054,0.021,0.128v2.104H110.072z"/>
	<path fill="#FFFFFF" d="M110.722,38.25h3.61v0.24c-0.285,0.006-0.496,0.032-0.633,0.079c-0.262,0.076-0.393,0.225-0.393,0.446
		c0,0.082,0.014,0.165,0.042,0.25s0.08,0.211,0.154,0.38l1.98,4.281l1.63-4.315c0.017-0.047,0.044-0.152,0.081-0.315
		c0.037-0.163,0.056-0.274,0.056-0.333c0-0.152-0.051-0.263-0.154-0.333c-0.103-0.07-0.234-0.111-0.394-0.123l-0.265-0.018v-0.24
		h2.353v0.24c-0.234,0.029-0.409,0.112-0.526,0.247c-0.117,0.136-0.218,0.324-0.304,0.565l-2.694,7.135
		c-0.468,1.231-0.916,2.124-1.343,2.678c-0.428,0.553-0.97,0.829-1.625,0.829c-0.319,0-0.619-0.079-0.898-0.239
		c-0.28-0.159-0.419-0.413-0.419-0.761c0-0.229,0.083-0.415,0.25-0.561c0.166-0.146,0.376-0.219,0.629-0.219
		c0.146,0,0.365,0.055,0.655,0.163s0.497,0.162,0.621,0.162c0.315,0,0.647-0.387,0.997-1.161c0.349-0.774,0.524-1.286,0.524-1.534
		c0-0.05-0.008-0.112-0.024-0.186c-0.017-0.073-0.036-0.138-0.057-0.195l-2.696-5.83c-0.194-0.422-0.364-0.7-0.509-0.834
		c-0.146-0.134-0.361-0.221-0.646-0.261V38.25z"/>
	<path fill="#FFFFFF" d="M123.819,45.787c0.673-0.062,1.092-0.193,1.257-0.392s0.248-0.661,0.248-1.388V36.42
		c0-0.616-0.093-1.02-0.278-1.21c-0.186-0.191-0.595-0.312-1.228-0.364v-0.325h4.851c1.009,0,1.851,0.128,2.523,0.384
		c1.277,0.484,1.917,1.375,1.917,2.674c0,0.871-0.284,1.541-0.852,2.007c-0.567,0.467-1.339,0.774-2.314,0.922l3.61,4.447
		c0.222,0.271,0.445,0.47,0.667,0.594c0.223,0.125,0.508,0.204,0.855,0.237v0.325h-2.822l-4.382-5.398l-0.769,0.043v3.453
		c0,0.648,0.098,1.059,0.295,1.232s0.626,0.289,1.288,0.345v0.325h-4.868V45.787z M129.807,39.713
		c0.93-0.381,1.395-1.099,1.395-2.152c0-1.013-0.417-1.705-1.249-2.075c-0.445-0.199-1.035-0.299-1.771-0.299
		c-0.496,0-0.8,0.036-0.911,0.107c-0.111,0.071-0.167,0.238-0.167,0.5v4.312C128.364,40.062,129.265,39.93,129.807,39.713z"/>
	<path fill="#FFFFFF" d="M141.433,38.922c0.604,0.556,0.907,1.344,0.907,2.365h-5.432c0.057,1.32,0.356,2.282,0.898,2.885
		c0.542,0.604,1.183,0.905,1.925,0.905c0.599,0,1.104-0.156,1.514-0.469s0.79-0.757,1.138-1.332l0.299,0.103
		c-0.234,0.725-0.671,1.396-1.313,2.013c-0.642,0.618-1.427,0.925-2.357,0.925c-1.072,0-1.9-0.405-2.485-1.214
		c-0.585-0.81-0.877-1.742-0.877-2.797c0-1.146,0.339-2.136,1.018-2.969c0.678-0.833,1.562-1.249,2.652-1.249
		C140.124,38.088,140.828,38.366,141.433,38.922z M137.335,39.577c-0.183,0.308-0.313,0.696-0.394,1.164h3.61
		c-0.063-0.57-0.171-0.996-0.325-1.275c-0.279-0.502-0.747-0.753-1.403-0.753C138.173,38.712,137.677,39,137.335,39.577z"/>
	<path fill="#FFFFFF" d="M143.169,49.646c0.533-0.034,0.871-0.148,1.015-0.343c0.145-0.193,0.217-0.499,0.217-0.915v-8.212
		c0-0.433-0.053-0.711-0.158-0.834s-0.304-0.184-0.595-0.184c-0.062,0-0.121,0.003-0.175,0.009s-0.132,0.017-0.235,0.034v-0.282
		l0.813-0.265c0.028-0.006,0.602-0.203,1.719-0.59c0.029,0,0.05,0.013,0.064,0.039c0.014,0.025,0.021,0.056,0.021,0.09v1.154
		c0.376-0.376,0.708-0.656,0.993-0.838c0.513-0.319,1.041-0.479,1.583-0.479c0.787,0,1.464,0.334,2.032,1.004
		s0.851,1.585,0.851,2.748c0,1.14-0.341,2.173-1.022,3.102c-0.681,0.929-1.538,1.393-2.57,1.393c-0.319,0-0.596-0.039-0.83-0.119
		c-0.365-0.12-0.701-0.339-1.009-0.659v2.806c0,0.575,0.094,0.929,0.282,1.061c0.188,0.131,0.599,0.22,1.232,0.265v0.3h-4.226
		V49.646z M146.544,45.398c0.293,0.191,0.64,0.286,1.039,0.286c0.616,0,1.142-0.306,1.579-0.918
		c0.436-0.612,0.654-1.465,0.654-2.559c0-1.048-0.227-1.831-0.68-2.35c-0.453-0.519-0.979-0.777-1.578-0.777
		c-0.422,0-0.807,0.129-1.155,0.389c-0.348,0.259-0.522,0.514-0.522,0.765v4.297C146.03,44.918,146.25,45.208,146.544,45.398z"/>
	<path fill="#FFFFFF" d="M153.726,42.34c0.525-0.342,1.571-0.807,3.14-1.395v-0.727c0-0.582-0.057-0.987-0.171-1.215
		c-0.194-0.382-0.596-0.573-1.207-0.573c-0.291,0-0.567,0.074-0.83,0.223c-0.262,0.154-0.394,0.365-0.394,0.633
		c0,0.068,0.014,0.184,0.043,0.347c0.028,0.163,0.042,0.267,0.042,0.312c0,0.319-0.105,0.542-0.316,0.667
		c-0.12,0.074-0.262,0.111-0.428,0.111c-0.257,0-0.453-0.084-0.59-0.252c-0.137-0.168-0.205-0.355-0.205-0.561
		c0-0.399,0.247-0.817,0.74-1.253c0.493-0.436,1.216-0.654,2.169-0.654c1.106,0,1.856,0.359,2.25,1.078
		c0.211,0.394,0.316,0.966,0.316,1.719v3.431c0,0.331,0.023,0.559,0.069,0.684c0.074,0.223,0.228,0.333,0.462,0.333
		c0.131,0,0.239-0.02,0.325-0.06c0.086-0.04,0.234-0.137,0.445-0.291v0.445c-0.182,0.223-0.379,0.405-0.59,0.547
		c-0.32,0.218-0.645,0.325-0.976,0.325c-0.388,0-0.668-0.125-0.842-0.376c-0.174-0.25-0.27-0.55-0.287-0.898
		c-0.434,0.376-0.804,0.656-1.112,0.838c-0.519,0.307-1.012,0.461-1.48,0.461c-0.49,0-0.915-0.172-1.274-0.517
		s-0.539-0.783-0.539-1.313C152.485,43.583,152.899,42.893,153.726,42.34z M156.865,41.373c-0.656,0.217-1.198,0.457-1.625,0.719
		c-0.821,0.507-1.231,1.083-1.231,1.728c0,0.519,0.171,0.901,0.513,1.146c0.222,0.16,0.47,0.24,0.744,0.24
		c0.376,0,0.737-0.105,1.082-0.316s0.518-0.479,0.518-0.804V41.373z"/>
	<path fill="#FFFFFF" d="M159.962,45.873c0.61-0.057,0.995-0.161,1.155-0.312c0.16-0.151,0.24-0.561,0.24-1.228v-4.081
		c0-0.371-0.026-0.627-0.078-0.77c-0.085-0.234-0.265-0.351-0.539-0.351c-0.063,0-0.124,0.006-0.184,0.017
		c-0.06,0.011-0.232,0.057-0.518,0.137v-0.265l0.368-0.12c0.998-0.325,1.693-0.57,2.087-0.736c0.16-0.068,0.263-0.103,0.309-0.103
		c0.011,0.04,0.017,0.083,0.017,0.128v6.142c0,0.65,0.078,1.058,0.235,1.223c0.157,0.166,0.512,0.271,1.065,0.316v0.24h-4.158
		V45.873z M161.322,34.434c0.172-0.176,0.382-0.264,0.633-0.264c0.245,0,0.455,0.087,0.629,0.26
		c0.174,0.173,0.261,0.385,0.261,0.634c0,0.244-0.087,0.453-0.261,0.626c-0.174,0.173-0.384,0.259-0.629,0.259
		c-0.251,0-0.461-0.086-0.633-0.259c-0.171-0.173-0.256-0.382-0.256-0.626S161.151,34.61,161.322,34.434z"/>
	<path fill="#FFFFFF" d="M164.564,45.83c0.524-0.046,0.872-0.138,1.044-0.278c0.171-0.14,0.256-0.438,0.256-0.894V40.8
		c0-0.564-0.053-0.968-0.158-1.21c-0.105-0.242-0.298-0.363-0.577-0.363c-0.057,0-0.133,0.007-0.227,0.021
		c-0.095,0.015-0.192,0.033-0.295,0.056v-0.282c0.323-0.114,0.656-0.231,0.997-0.351c0.342-0.12,0.577-0.206,0.708-0.257
		c0.284-0.108,0.577-0.231,0.878-0.368c0.04,0,0.064,0.014,0.073,0.042c0.008,0.029,0.013,0.089,0.013,0.18v1.403
		c0.366-0.508,0.719-0.904,1.059-1.189c0.341-0.285,0.694-0.428,1.06-0.428c0.292,0,0.529,0.087,0.712,0.261
		c0.184,0.174,0.275,0.392,0.275,0.654c0,0.234-0.07,0.431-0.21,0.59s-0.315,0.239-0.526,0.239c-0.217,0-0.435-0.1-0.654-0.299
		S168.6,39.2,168.474,39.2c-0.199,0-0.444,0.161-0.735,0.483s-0.437,0.654-0.437,0.997v3.858c0,0.491,0.114,0.832,0.342,1.022
		c0.229,0.191,0.607,0.281,1.138,0.27v0.282h-4.217V45.83z"/>
	<path fill="#FFFFFF" d="M178.865,39.508c-0.075-0.154-0.161-0.365-0.259-0.633c-0.099-0.268-0.167-0.484-0.207-0.65
		c-0.046-0.183-0.084-0.367-0.112-0.552c-0.029-0.186-0.043-0.367-0.043-0.543c0-0.821,0.25-1.502,0.751-2.044
		s1.136-0.813,1.904-0.813c0.7,0,1.275,0.191,1.726,0.573c0.449,0.382,0.675,0.896,0.675,1.54c0,0.753-0.285,1.369-0.855,1.848
		c-0.569,0.479-1.182,0.864-1.836,1.155c0.506,0.913,0.878,1.557,1.117,1.934c0.238,0.376,0.643,0.933,1.212,1.668
		c0.61-0.741,1.031-1.374,1.266-1.899c0.233-0.525,0.351-0.944,0.351-1.258c0-0.319-0.117-0.539-0.351-0.659
		c-0.148-0.074-0.405-0.125-0.771-0.154v-0.368h3.803v0.368c-0.385,0.046-0.673,0.114-0.862,0.206
		c-0.311,0.154-0.575,0.431-0.794,0.83l-0.449,0.812c-0.321,0.582-0.591,1.027-0.807,1.334c-0.216,0.308-0.539,0.733-0.971,1.275
		c0.23,0.268,0.492,0.539,0.786,0.812c0.64,0.542,1.278,0.813,1.918,0.813c0.38,0,0.702-0.091,0.968-0.274
		c0.161-0.114,0.377-0.333,0.647-0.659l0.257,0.205c-0.034,0.137-0.155,0.353-0.362,0.646c-0.207,0.294-0.406,0.523-0.596,0.689
		c-0.3,0.262-0.647,0.448-1.045,0.556c-0.236,0.068-0.466,0.103-0.69,0.103c-0.559,0-1.11-0.174-1.657-0.522
		c-0.328-0.206-0.766-0.567-1.312-1.086c-0.517,0.473-1.039,0.835-1.566,1.086c-0.689,0.342-1.446,0.513-2.273,0.513
		c-0.918,0-1.651-0.244-2.199-0.731c-0.548-0.488-0.822-1.153-0.822-1.998c0-0.792,0.245-1.49,0.734-2.091
		c0.49-0.602,1.176-1.151,2.058-1.647L178.865,39.508z M180.496,45.154c0.46-0.183,0.9-0.471,1.32-0.864
		c-0.541-0.684-0.963-1.26-1.265-1.728c-0.302-0.467-0.775-1.283-1.419-2.446c-0.593,0.348-1.046,0.696-1.362,1.043
		c-0.483,0.536-0.725,1.158-0.725,1.865c0,0.65,0.213,1.213,0.639,1.69c0.425,0.476,0.972,0.714,1.639,0.714
		C179.646,45.428,180.036,45.337,180.496,45.154z M181.604,37.96c0.509-0.491,0.764-1.032,0.764-1.625
		c0-0.445-0.13-0.804-0.39-1.078c-0.259-0.273-0.589-0.411-0.987-0.411c-0.434,0-0.769,0.14-1.006,0.419
		c-0.236,0.279-0.354,0.65-0.354,1.112c0,0.359,0.065,0.749,0.197,1.168c0.132,0.419,0.303,0.851,0.514,1.296
		C180.9,38.527,181.321,38.233,181.604,37.96z"/>
	<path fill="#FFFFFF" d="M192.905,45.787c0.674-0.062,1.093-0.193,1.258-0.392c0.166-0.199,0.248-0.661,0.248-1.388V36.42
		c0-0.616-0.093-1.02-0.277-1.21c-0.186-0.191-0.595-0.312-1.229-0.364v-0.325h4.851c1.01,0,1.851,0.128,2.524,0.384
		c1.277,0.484,1.916,1.375,1.916,2.674c0,0.871-0.284,1.541-0.852,2.007c-0.567,0.467-1.339,0.774-2.313,0.922l3.609,4.447
		c0.223,0.271,0.445,0.47,0.668,0.594c0.222,0.125,0.507,0.204,0.855,0.237v0.325h-2.822l-4.382-5.398l-0.77,0.043v3.453
		c0,0.648,0.099,1.059,0.296,1.232c0.196,0.173,0.625,0.289,1.287,0.345v0.325h-4.868V45.787z M198.894,39.713
		c0.93-0.381,1.395-1.099,1.395-2.152c0-1.013-0.416-1.705-1.249-2.075c-0.444-0.199-1.035-0.299-1.771-0.299
		c-0.496,0-0.8,0.036-0.911,0.107c-0.111,0.071-0.167,0.238-0.167,0.5v4.312C197.451,40.062,198.353,39.93,198.894,39.713z"/>
	<path fill="#FFFFFF" d="M210.52,38.922c0.604,0.556,0.907,1.344,0.907,2.365h-5.433c0.057,1.32,0.356,2.282,0.898,2.885
		c0.542,0.604,1.184,0.905,1.925,0.905c0.599,0,1.104-0.156,1.514-0.469c0.411-0.313,0.79-0.757,1.138-1.332l0.3,0.103
		c-0.233,0.725-0.672,1.396-1.313,2.013c-0.642,0.618-1.427,0.925-2.356,0.925c-1.072,0-1.9-0.405-2.485-1.214
		c-0.584-0.81-0.877-1.742-0.877-2.797c0-1.146,0.34-2.136,1.019-2.969c0.679-0.833,1.562-1.249,2.651-1.249
		C209.211,38.088,209.915,38.366,210.52,38.922z M206.422,39.577c-0.183,0.308-0.313,0.696-0.394,1.164h3.61
		c-0.062-0.57-0.171-0.996-0.325-1.275c-0.279-0.502-0.747-0.753-1.403-0.753C207.261,38.712,206.765,39,206.422,39.577z"/>
	<path fill="#FFFFFF" d="M212.453,45.89c0.445-0.04,0.741-0.114,0.89-0.222c0.229-0.166,0.343-0.496,0.343-0.992v-4.423
		c0-0.422-0.056-0.699-0.167-0.83c-0.111-0.131-0.296-0.196-0.552-0.196c-0.12,0-0.21,0.005-0.27,0.017
		c-0.061,0.011-0.13,0.031-0.21,0.06v-0.299l0.616-0.205c0.223-0.074,0.587-0.208,1.095-0.402s0.775-0.291,0.805-0.291
		c0.028,0,0.045,0.015,0.051,0.043c0.006,0.029,0.009,0.083,0.009,0.163v1.155c0.564-0.513,1.052-0.868,1.463-1.065
		c0.41-0.197,0.832-0.295,1.266-0.295c0.588,0,1.056,0.2,1.403,0.599c0.183,0.217,0.334,0.51,0.453,0.881
		c0.422-0.428,0.79-0.744,1.104-0.949c0.542-0.354,1.095-0.531,1.66-0.531c0.918,0,1.531,0.374,1.839,1.121
		c0.177,0.422,0.266,1.089,0.266,2.001v3.55c0,0.405,0.09,0.68,0.27,0.826c0.179,0.145,0.503,0.241,0.971,0.286v0.223h-3.858v-0.24
		c0.496-0.045,0.822-0.145,0.979-0.299c0.157-0.154,0.235-0.467,0.235-0.941v-3.687c0-0.553-0.06-0.961-0.18-1.223
		c-0.211-0.468-0.624-0.702-1.24-0.702c-0.371,0-0.739,0.123-1.104,0.368c-0.211,0.143-0.471,0.371-0.778,0.685v4.38
		c0,0.462,0.081,0.813,0.243,1.052c0.163,0.24,0.506,0.368,1.031,0.385v0.223h-3.927V45.89c0.542-0.068,0.887-0.199,1.035-0.393
		s0.223-0.673,0.223-1.438v-2.39c0-0.876-0.058-1.48-0.171-1.81c-0.188-0.559-0.588-0.838-1.198-0.838
		c-0.348,0-0.69,0.096-1.026,0.287c-0.337,0.191-0.633,0.44-0.89,0.749v4.679c0,0.434,0.075,0.733,0.227,0.898
		s0.48,0.251,0.988,0.256v0.223h-3.893V45.89z"/>
	<path fill="#FFFFFF" d="M231.924,38.922c0.604,0.556,0.907,1.344,0.907,2.365h-5.433c0.057,1.32,0.356,2.282,0.898,2.885
		c0.542,0.604,1.184,0.905,1.925,0.905c0.599,0,1.104-0.156,1.514-0.469c0.411-0.313,0.79-0.757,1.138-1.332l0.3,0.103
		c-0.233,0.725-0.672,1.396-1.313,2.013c-0.642,0.618-1.427,0.925-2.356,0.925c-1.072,0-1.9-0.405-2.485-1.214
		c-0.584-0.81-0.877-1.742-0.877-2.797c0-1.146,0.34-2.136,1.019-2.969c0.679-0.833,1.562-1.249,2.651-1.249
		C230.615,38.088,231.319,38.366,231.924,38.922z M227.826,39.577c-0.183,0.308-0.313,0.696-0.394,1.164h3.61
		c-0.062-0.57-0.171-0.996-0.325-1.275c-0.279-0.502-0.747-0.753-1.403-0.753C228.665,38.712,228.169,39,227.826,39.577z"/>
	<path fill="#FFFFFF" d="M238.869,38.302c0.229,0.12,0.448,0.286,0.659,0.497v-2.721c0-0.348-0.039-0.587-0.115-0.718
		c-0.077-0.131-0.262-0.197-0.552-0.197c-0.068,0-0.129,0.003-0.18,0.008c-0.052,0.006-0.166,0.017-0.343,0.034v-0.282l0.702-0.18
		c0.256-0.068,0.513-0.14,0.77-0.214s0.481-0.146,0.676-0.214c0.091-0.028,0.242-0.083,0.453-0.163l0.052,0.017l-0.018,0.898
		c-0.006,0.325-0.011,0.66-0.017,1.005c-0.006,0.345-0.009,0.686-0.009,1.022l-0.017,6.989c0,0.371,0.045,0.63,0.137,0.778
		c0.091,0.148,0.333,0.223,0.727,0.223c0.062,0,0.126-0.001,0.188-0.004s0.125-0.01,0.188-0.021v0.282
		c-0.034,0.012-0.448,0.154-1.24,0.428l-1.344,0.504l-0.06-0.076v-1.053c-0.319,0.348-0.596,0.596-0.83,0.744
		c-0.416,0.257-0.898,0.385-1.445,0.385c-0.97,0-1.756-0.375-2.357-1.125s-0.902-1.618-0.902-2.605c0-1.237,0.361-2.3,1.082-3.187
		c0.722-0.887,1.604-1.33,2.648-1.33C238.14,38.028,238.521,38.12,238.869,38.302z M239.117,44.958
		c0.274-0.262,0.411-0.51,0.411-0.744v-3.67c0-0.742-0.198-1.265-0.595-1.57s-0.782-0.458-1.159-0.458
		c-0.719,0-1.277,0.318-1.677,0.954s-0.599,1.418-0.599,2.348c0,0.918,0.212,1.737,0.638,2.455c0.425,0.719,1.059,1.078,1.903,1.078
		C238.484,45.351,238.844,45.22,239.117,44.958z"/>
	<path fill="#FFFFFF" d="M242.574,38.25h3.61v0.24c-0.285,0.006-0.496,0.032-0.633,0.079c-0.263,0.076-0.394,0.225-0.394,0.446
		c0,0.082,0.014,0.165,0.043,0.25c0.028,0.084,0.079,0.211,0.153,0.38l1.98,4.281l1.63-4.315c0.017-0.047,0.044-0.152,0.081-0.315
		c0.037-0.163,0.056-0.274,0.056-0.333c0-0.152-0.051-0.263-0.154-0.333c-0.103-0.07-0.233-0.111-0.394-0.123l-0.265-0.018v-0.24
		h2.353v0.24c-0.234,0.029-0.409,0.112-0.526,0.247c-0.117,0.136-0.218,0.324-0.304,0.565l-2.694,7.135
		c-0.468,1.231-0.916,2.124-1.344,2.678c-0.428,0.553-0.969,0.829-1.625,0.829c-0.319,0-0.619-0.079-0.898-0.239
		c-0.279-0.159-0.419-0.413-0.419-0.761c0-0.229,0.083-0.415,0.249-0.561s0.376-0.219,0.63-0.219c0.146,0,0.364,0.055,0.654,0.163
		s0.497,0.162,0.621,0.162c0.315,0,0.648-0.387,0.997-1.161c0.35-0.774,0.524-1.286,0.524-1.534c0-0.05-0.009-0.112-0.024-0.186
		c-0.017-0.073-0.035-0.138-0.058-0.195l-2.695-5.83c-0.194-0.422-0.363-0.7-0.509-0.834c-0.146-0.134-0.361-0.221-0.646-0.261
		V38.25z"/>
	<path fill="#FFFFFF" d="M256.604,42.588c0.296,0.787,0.644,1.415,1.042,1.882c0.695,0.816,1.558,1.224,2.589,1.224
		c0.558,0,1.04-0.177,1.447-0.531c0.407-0.354,0.611-0.847,0.611-1.48c0-0.57-0.205-1.066-0.615-1.488
		c-0.268-0.268-0.831-0.67-1.69-1.206l-1.494-0.933c-0.45-0.285-0.809-0.573-1.076-0.864c-0.497-0.553-0.745-1.163-0.745-1.831
		c0-0.884,0.294-1.62,0.882-2.207c0.587-0.587,1.365-0.881,2.335-0.881c0.399,0,0.88,0.099,1.441,0.295s0.883,0.295,0.963,0.295
		c0.217,0,0.366-0.051,0.449-0.154c0.082-0.103,0.146-0.248,0.192-0.437h0.359l0.385,3.73h-0.419
		c-0.286-1.124-0.743-1.908-1.373-2.353c-0.631-0.445-1.254-0.667-1.869-0.667c-0.479,0-0.897,0.141-1.254,0.423
		s-0.534,0.674-0.534,1.176c0,0.451,0.137,0.835,0.409,1.155c0.273,0.325,0.698,0.665,1.273,1.018l1.539,0.95
		c0.963,0.593,1.642,1.138,2.037,1.634c0.389,0.502,0.584,1.095,0.584,1.779c0,0.918-0.347,1.685-1.04,2.301
		c-0.692,0.616-1.578,0.924-2.656,0.924c-0.541,0-1.107-0.104-1.697-0.309c-0.591-0.205-0.929-0.308-1.014-0.308
		c-0.206,0-0.344,0.062-0.415,0.188s-0.119,0.259-0.142,0.402h-0.385l-0.521-3.729H256.604z"/>
	<path fill="#FFFFFF" d="M270.513,38.302c0.229,0.12,0.448,0.286,0.659,0.497v-2.721c0-0.348-0.039-0.587-0.115-0.718
		c-0.077-0.131-0.262-0.197-0.552-0.197c-0.068,0-0.129,0.003-0.18,0.008c-0.052,0.006-0.166,0.017-0.343,0.034v-0.282l0.702-0.18
		c0.256-0.068,0.513-0.14,0.77-0.214s0.481-0.146,0.676-0.214c0.091-0.028,0.242-0.083,0.453-0.163l0.052,0.017l-0.018,0.898
		c-0.006,0.325-0.011,0.66-0.017,1.005c-0.006,0.345-0.009,0.686-0.009,1.022l-0.017,6.989c0,0.371,0.045,0.63,0.137,0.778
		c0.091,0.148,0.333,0.223,0.727,0.223c0.062,0,0.126-0.001,0.188-0.004s0.125-0.01,0.188-0.021v0.282
		c-0.034,0.012-0.448,0.154-1.24,0.428l-1.344,0.504l-0.06-0.076v-1.053c-0.319,0.348-0.596,0.596-0.83,0.744
		c-0.416,0.257-0.898,0.385-1.445,0.385c-0.97,0-1.756-0.375-2.357-1.125s-0.902-1.618-0.902-2.605c0-1.237,0.361-2.3,1.082-3.187
		c0.722-0.887,1.604-1.33,2.648-1.33C269.783,38.028,270.165,38.12,270.513,38.302z M270.761,44.958
		c0.274-0.262,0.411-0.51,0.411-0.744v-3.67c0-0.742-0.198-1.265-0.595-1.57s-0.782-0.458-1.159-0.458
		c-0.719,0-1.277,0.318-1.677,0.954s-0.599,1.418-0.599,2.348c0,0.918,0.212,1.737,0.638,2.455c0.425,0.719,1.059,1.078,1.903,1.078
		C270.128,45.351,270.487,45.22,270.761,44.958z"/>
	<path fill="#FFFFFF" d="M274.295,45.873c0.405-0.051,0.688-0.152,0.852-0.304c0.162-0.151,0.243-0.489,0.243-1.014v-4.346
		c0-0.362-0.034-0.617-0.103-0.764c-0.108-0.215-0.33-0.323-0.667-0.323c-0.052,0-0.104,0.003-0.158,0.009
		c-0.055,0.006-0.121,0.014-0.201,0.025v-0.299c0.233-0.068,0.787-0.245,1.66-0.53l0.804-0.265c0.04,0,0.064,0.014,0.072,0.042
		c0.009,0.029,0.014,0.069,0.014,0.12v1.257c0.523-0.49,0.933-0.827,1.229-1.009c0.443-0.279,0.904-0.419,1.383-0.419
		c0.388,0,0.74,0.111,1.059,0.334c0.615,0.433,0.923,1.206,0.923,2.318v3.995c0,0.411,0.082,0.708,0.246,0.89
		c0.164,0.183,0.438,0.277,0.823,0.282v0.24h-3.653v-0.24c0.416-0.057,0.707-0.172,0.873-0.346c0.165-0.174,0.248-0.552,0.248-1.133
		V40.74c0-0.491-0.091-0.897-0.272-1.219s-0.517-0.483-1.004-0.483c-0.335,0-0.675,0.114-1.021,0.342
		c-0.193,0.131-0.442,0.348-0.749,0.65v4.791c0,0.411,0.091,0.686,0.273,0.826c0.183,0.14,0.471,0.215,0.864,0.227v0.24h-3.738
		V45.873z"/>
	<path fill="#FFFFFF" d="M287.426,45.787c0.704-0.04,1.159-0.149,1.366-0.328c0.207-0.178,0.311-0.594,0.311-1.246V36.42
		c0-0.645-0.104-1.059-0.311-1.245s-0.662-0.295-1.366-0.33v-0.325h4.906c1.401,0,2.515,0.225,3.338,0.676s1.234,1.227,1.234,2.329
		c0,0.828-0.288,1.456-0.863,1.883c-0.325,0.246-0.813,0.448-1.463,0.608c0.804,0.194,1.491,0.518,2.062,0.97
		c0.57,0.453,0.855,1.087,0.855,1.902c0,1.368-0.633,2.308-1.897,2.821c-0.667,0.268-1.487,0.402-2.462,0.402h-5.71V45.787z
		 M294.014,39.431c0.741-0.343,1.111-0.957,1.111-1.843c0-1.045-0.428-1.751-1.283-2.117c-0.473-0.2-1.191-0.3-2.155-0.3
		c-0.365,0-0.591,0.032-0.676,0.094c-0.086,0.063-0.129,0.234-0.129,0.514v3.96l1.669-0.026
		C293.138,39.702,293.625,39.608,294.014,39.431z M294.578,44.958c0.604-0.348,0.906-1.015,0.906-2.002
		c0-0.981-0.354-1.651-1.061-2.01s-1.608-0.539-2.703-0.539c-0.269,0-0.438,0-0.509,0s-0.182-0.003-0.33-0.008v4.363
		c0,0.302,0.086,0.498,0.257,0.586s0.567,0.133,1.189,0.133C293.224,45.479,293.974,45.305,294.578,44.958z"/>
	<path fill="#FFFFFF" d="M298.958,45.873c0.467-0.062,0.773-0.178,0.919-0.346c0.146-0.168,0.219-0.566,0.219-1.193v-8.212
		c0-0.319-0.042-0.555-0.124-0.706c-0.083-0.151-0.284-0.227-0.604-0.227c-0.062,0-0.124,0.004-0.184,0.013
		c-0.061,0.009-0.127,0.019-0.201,0.03v-0.308c0.251-0.074,0.561-0.164,0.928-0.27c0.368-0.105,0.623-0.181,0.766-0.227l0.821-0.257
		l0.018,0.06v5.252c0.359-0.411,0.679-0.713,0.958-0.907c0.502-0.342,1.044-0.513,1.625-0.513c0.924,0,1.555,0.388,1.891,1.164
		c0.183,0.41,0.274,0.949,0.274,1.617v3.49c0,0.604,0.069,0.998,0.209,1.181s0.427,0.302,0.86,0.359v0.24h-3.704v-0.24
		c0.496-0.068,0.815-0.185,0.958-0.351c0.143-0.165,0.214-0.562,0.214-1.189v-3.465c0-0.553-0.093-1.001-0.278-1.343
		c-0.186-0.342-0.534-0.513-1.048-0.513c-0.445,0-0.876,0.16-1.292,0.479s-0.624,0.527-0.624,0.625v4.217
		c0,0.639,0.074,1.038,0.222,1.198c0.148,0.16,0.465,0.273,0.95,0.342v0.24h-3.772V45.873z"/>
	<path fill="#FFFFFF" d="M312.858,38.302c0.229,0.12,0.448,0.286,0.659,0.497v-2.721c0-0.348-0.039-0.587-0.115-0.718
		c-0.077-0.131-0.262-0.197-0.552-0.197c-0.068,0-0.129,0.003-0.18,0.008c-0.052,0.006-0.166,0.017-0.343,0.034v-0.282l0.702-0.18
		c0.256-0.068,0.513-0.14,0.77-0.214s0.481-0.146,0.676-0.214c0.091-0.028,0.242-0.083,0.453-0.163l0.052,0.017l-0.018,0.898
		c-0.006,0.325-0.011,0.66-0.017,1.005c-0.006,0.345-0.009,0.686-0.009,1.022l-0.017,6.989c0,0.371,0.045,0.63,0.137,0.778
		c0.091,0.148,0.333,0.223,0.727,0.223c0.062,0,0.126-0.001,0.188-0.004s0.125-0.01,0.188-0.021v0.282
		c-0.034,0.012-0.448,0.154-1.24,0.428l-1.344,0.504l-0.06-0.076v-1.053c-0.319,0.348-0.596,0.596-0.83,0.744
		c-0.416,0.257-0.898,0.385-1.445,0.385c-0.97,0-1.756-0.375-2.357-1.125s-0.902-1.618-0.902-2.605c0-1.237,0.361-2.3,1.082-3.187
		c0.722-0.887,1.604-1.33,2.648-1.33C312.129,38.028,312.511,38.12,312.858,38.302z M313.106,44.958
		c0.274-0.262,0.411-0.51,0.411-0.744v-3.67c0-0.742-0.198-1.265-0.595-1.57s-0.782-0.458-1.159-0.458
		c-0.719,0-1.277,0.318-1.677,0.954s-0.599,1.418-0.599,2.348c0,0.918,0.212,1.737,0.638,2.455c0.425,0.719,1.059,1.078,1.903,1.078
		C312.474,45.351,312.833,45.22,313.106,44.958z"/>
</g>
<g>
	<path fill="#FFFFFF" d="M264.667,50.58c-0.792,1.063-1.367,2.474-1.367,4.438c0,1.931,0.597,3.319,1.367,4.404h-0.749
		c-0.684-0.9-1.421-2.289-1.421-4.404c0.011-2.138,0.737-3.526,1.421-4.438H264.667z"/>
	<path fill="#FFFFFF" d="M267.443,51.947h-0.021l-1.227,0.662l-0.185-0.728l1.541-0.824h0.813v7.052h-0.922V51.947z"/>
	<path fill="#FFFFFF" d="M275.622,54.508c0,2.397-0.89,3.721-2.452,3.721c-1.377,0-2.311-1.291-2.332-3.623
		c0-2.365,1.02-3.667,2.452-3.667C274.776,50.938,275.622,52.262,275.622,54.508z M271.793,54.616c0,1.833,0.563,2.875,1.432,2.875
		c0.977,0,1.443-1.14,1.443-2.94c0-1.735-0.445-2.875-1.433-2.875C272.4,51.676,271.793,52.695,271.793,54.616z"/>
	<path fill="#FFFFFF" d="M279.45,58.109v-1.92h-3.276v-0.63l3.146-4.502h1.031v4.383h0.987v0.749h-0.987v1.92H279.45z M279.45,55.44
		v-2.354c0-0.368,0.011-0.737,0.032-1.106h-0.032c-0.218,0.412-0.391,0.716-0.586,1.042l-1.726,2.397v0.021H279.45z"/>
	<path fill="#FFFFFF" d="M282.616,57.437c0.207,0.021,0.445,0,0.771-0.032c0.554-0.076,1.074-0.304,1.476-0.684
		c0.467-0.423,0.803-1.042,0.934-1.877h-0.033c-0.391,0.478-0.954,0.76-1.66,0.76c-1.269,0-2.083-0.955-2.083-2.159
		c0-1.334,0.966-2.506,2.409-2.506c1.442,0,2.332,1.172,2.332,2.973c0,1.551-0.521,2.636-1.215,3.309
		c-0.542,0.531-1.291,0.857-2.051,0.944c-0.347,0.054-0.65,0.064-0.879,0.054V57.437z M282.964,53.379
		c0,0.879,0.531,1.497,1.356,1.497c0.64,0,1.139-0.314,1.389-0.737c0.054-0.087,0.087-0.195,0.087-0.348
		c0-1.204-0.445-2.126-1.443-2.126C283.539,51.665,282.964,52.381,282.964,53.379z"/>
	<path fill="#FFFFFF" d="M288.181,57.437c0.207,0.021,0.445,0,0.771-0.032c0.554-0.076,1.074-0.304,1.476-0.684
		c0.467-0.423,0.803-1.042,0.934-1.877h-0.033c-0.391,0.478-0.954,0.76-1.66,0.76c-1.269,0-2.083-0.955-2.083-2.159
		c0-1.334,0.966-2.506,2.409-2.506c1.442,0,2.332,1.172,2.332,2.973c0,1.551-0.521,2.636-1.215,3.309
		c-0.542,0.531-1.291,0.857-2.051,0.944c-0.347,0.054-0.65,0.064-0.879,0.054V57.437z M288.528,53.379
		c0,0.879,0.531,1.497,1.356,1.497c0.64,0,1.139-0.314,1.389-0.737c0.054-0.087,0.087-0.195,0.087-0.348
		c0-1.204-0.445-2.126-1.443-2.126C289.104,51.665,288.528,52.381,288.528,53.379z"/>
	<path fill="#FFFFFF" d="M297.77,51.058v0.629l-3.07,6.423h-0.987l3.06-6.238V51.85h-3.45v-0.792H297.77z"/>
	<path fill="#FFFFFF" d="M302.965,51.86h-2.69l-0.271,1.812c0.163-0.021,0.315-0.043,0.575-0.043c0.543,0,1.085,0.119,1.52,0.38
		c0.553,0.314,1.009,0.922,1.009,1.812c0,1.378-1.096,2.408-2.626,2.408c-0.77,0-1.421-0.217-1.757-0.434l0.238-0.728
		c0.293,0.174,0.868,0.391,1.508,0.391c0.9,0,1.671-0.585,1.671-1.529c-0.011-0.911-0.618-1.562-2.028-1.562
		c-0.401,0-0.717,0.044-0.977,0.076l0.455-3.385h3.374V51.86z"/>
	<path fill="#FFFFFF" d="M306.837,54.822v0.705h-2.68v-0.705H306.837z"/>
	<path fill="#FFFFFF" d="M307.985,50.797h0.944v3.526h0.032c0.195-0.282,0.391-0.543,0.575-0.781l2.234-2.745h1.172l-2.646,3.104
		l2.853,4.209h-1.117l-2.408-3.591l-0.694,0.803v2.788h-0.944V50.797z"/>
	<path fill="#FFFFFF" d="M313.506,59.422c0.771-1.074,1.367-2.484,1.367-4.437c0-1.942-0.586-3.331-1.367-4.405h0.738
		c0.694,0.89,1.421,2.278,1.421,4.416c0,2.126-0.727,3.504-1.421,4.426H313.506z"/>
</g>
</svg>
