<?xml version="1.0" encoding="utf-8"?>
<!-- Generator: Adobe Illustrator 16.0.0, SVG Export Plug-In . SVG Version: 6.00 Build 0)  -->
<!DOCTYPE svg PUBLIC "-//W3C//DTD SVG 1.1//EN" "http://www.w3.org/Graphics/SVG/1.1/DTD/svg11.dtd">
<svg version="1.1" id="Layer_1" xmlns="http://www.w3.org/2000/svg" xmlns:xlink="http://www.w3.org/1999/xlink" x="0px" y="0px"
	 width="841.889px" height="110px" viewBox="0 237.14 841.889 110" enable-background="new 0 237.14 841.889 110"
	 xml:space="preserve">
<path id="XMLID_19_" opacity="0.71" fill="#E6E6E6" stroke="#FFFFFF" stroke-width="0.1573" enable-background="new    " d="
	M837.789,330.49v-11.1h-3.5v-3h-2.399v-1.101h-2.101v0.801h-1.8v0.699h-0.8v3.301h-1.1v6.499h-0.9v-11.1l-1.4-0.7l-1.3,0.4v-1.3
	h-3.7v6.3h-1.199v1.7h-0.601v0.699h-1.6v0.5h-1.601v0.5h-1.5v-1.3h-0.899v-0.7h-1.2v-0.699h-0.7v-0.5h-2.5v1.1h-1.1l-0.9,0.4v1
	h-1.399v1.899h-3.101v-0.8h-2.5v-5.8h-1.199v-1.3l-1.801-3.3l-1.999,3.1v1.5h-1.2v5.7h-0.601v1.399h-2.399v-1.3h-2.4v1.2h-5.3v-1.2
	h-2.2v1.4h-0.399v-5.601l-1.5-2h-5.101l-2.699,1.5v2.101h-1.4v-0.9h-1.8v0.8h-0.9v0.5h-1.8v-4.6h-3.9v-0.6h-2.6v-0.9h-4.399v-1.4
	h-4.301v1.7h-1.899v2.601h-0.601v1.999l-0.699-0.8h-2.801v-1h-2.1v1.101h-1.1v0.8h-0.8v3.2h-2.101v-1h-1v-0.7h-0.899v-0.3h1.3v-1.5
	h-4v-1.2h-0.9v-0.6h0.4v-1.801h-7.8v-2.3h-1.5v-1h-0.8v-1.399h-0.601v-1.101h-1.399v-2.1h-3.7l-1,0.7v1.6h-1.9l-1.3,1.8l-0.7-1.2
	h-4.2l0.4-0.699v-2.301l-6.399-0.1l-1.5,0.4v2h0.8v0.899h-2l-2.5,0.4l-0.5-0.601v-0.8h-1.5v-1.399h-0.9v-0.7h-3.1l-0.6,0.6v1.601h-2
	v1.1h-0.5v1.4h-0.801v-0.7l-0.8,0.8v3.9h-0.8v-1.301h-1.5v-1h-1.7v-1.3h-2.6v-1.399h-3.1l-0.5,0.5v2.5h-1.4v1l-0.3,0.3v10.399h-1.7
	v-10.199h-3.5v-0.801h-0.7v-0.399h-1.399v1.2h-0.7v-5.801l-1.5-4.499h-2v-2.2h-3.2v0.6h-0.6v-0.6h-3.5v8.5h-0.4v-2.7l-0.7-0.7h-0.6
	v-0.6l0.4-0.4l-0.801-0.7h-1.8v-2.1h-3.5v1.8h-1.6l-2.4,1.4v12.6h-3.899v-2.6l-0.9-0.9l-0.8,1v2.6h-3.9v-2.1h-1.399v-11.2l-0.8-0.8
	h-2.601v-2.899l-0.8-0.7h-0.6l-0.3-1.8l-0.2,1.8l-4.5,0.399v3.7h-2.601v2.4h-0.5v0.6h-1.8v1.9h-3v8.1h-1.699v-7.2h-3v-9.399h-0.7
	v-3.5h-1.7v-0.8h-1.9v-1.4h-4.199v1.4h-1.101v0.699h-2.6l-1.6,0.5v1.9h-2.801v0.7h-1.6v3.399h-1.4v12.4h-1.1v-2h-0.6v0.7h-1.3v1.199
	h-1.5v-0.6h-0.9l-0.7,0.7v2.8h-1.399v-25.1l-0.7-0.7l0.399-0.4h0.5v-0.899h-0.5v-0.7h0.5v-0.7c0,0-0.699-0.2-1-0.2
	c-0.3,0-1.699-0.1-1.699-0.1v-0.9l-2.101-1.1l-0.2-3.8l-0.1,3.8l-2.2,1.2v0.899c0,0-0.6,0-0.899,0s-1.4,0.2-1.4,0.2v0.9h0.4v0.5
	l-0.2,0.199v0.7h0.5l0.6,0.601l-0.899,0.5v9.1h-2.101v-2.8h-0.8v2.6h-0.7v-4.1h-3.399v4.2h-2.7v0.6h0.9v1.6l-0.801,0.4v1.7h-0.699
	v1.8h-1.4v-1.4l-2.1-1.8v-6.5l-0.5-0.699h-1l-0.7-0.601h-1.3l-0.9-0.7h-4.1v1.801l-1.2,1h-1.3v1.399h-0.7v5.2h-0.5v6.399h-1.4v-2.8
	h-2.1v-2h-1v-8.399l-0.9-0.9h-0.899l-1.101-1.1h-3.899v0.399h-1.4l-1-0.8h-2.399v1.2h-2.101v0.3h0.4v0.601h-0.7v0.3h0.4v0.7
	l-0.2,0.199v0.9h-0.8v1h-0.7l-1.1-1.1h-3.301l-1.399,1.399l-0.601-0.6v-1.601h-1v-6.199l-0.699-0.601h-1.2l-1.8-1.1h-2.7v1h-1
	l-0.4-0.4h-1.3v2.4h-0.8v-0.7l-0.8-0.5h-2.5v1.2h-1.8v0.3h1.2v0.7h-1.601v0.399h0.5v1.7h-0.399v-1h-2.601v-1.899h-3.5v1.8h-0.899
	v-3.7l0.699-0.8v-0.801h-1.199l-0.7-0.6h-1.601l-0.6-0.9h-2.4l-0.8,0.801h-1.5l-0.6,0.399v1.601h-0.9v3.899h-1.5v2.7h-0.399v-6.5
	h-0.4v-2.2l-1.6-0.6v-1.7l-0.601-0.6h-1.6l-0.8-0.801h-1.4v0.4h-0.8v-0.4h-1v3.101h-2.1v2.2h-0.4v2.6l-5.5,0.8l-0.5,1.2l0.5,1.3
	v15.601l-0.7-0.9l-0.699,0.9v5.6h-0.7v-10.8l-0.7-0.9v-12.1l-0.3-1.3h-1.3v-1.4l-1-0.5h-3.601v-1.1h-0.399v-2h0.6v-0.4l-3.7-2
	l-3.3-0.8v-3l-2-0.9h-1.899v1.4h-1.5v4.399h-1.2v4.5l-1.2,0.5v18.4h-2.5v-1h-1.7v1.3h-0.5v-11.199l-2.899-0.7v-4.9l-2-1h-1.7v-0.9
	h-2.2v-7l-4.7-3.899h-2.899l-4.2-1.4l-7.199,0.301v5.3l-0.4,0.5v9.1h-2v2.7h-0.7v1.6l-2.5-0.8v-19.399l-3.6-4l-2.2-3.7v3.2h-1.2
	l-1.399,4.8h-2.8v10.199l-2.9-0.699v-26l-2.8,0.3v-1h-1.4l-0.699-0.8l-3.5,0.2v2.3l-3.9,0.6v7.8h-0.7v7.101h0.7v11l-1.4,2.7v-2.9
	h-2.899v-0.9l0.3-0.5h-0.6l-0.3-1.2v1.4h-1.801l0.301,0.7h1.399v0.7h-4.899v0.899l-1.7,2.4v9.399h-1.4v2.2h-2.3v-1.899l-1.899-0.801
	v-3.699h-0.5V292.79l-3.101-1.399h-2.1v-1.101l-2.101-1h-6.699v2.5h-4.601v-4.899h-2.199v-1.5l-8.5-2.3h-2.4l-8.8,1.899v6.8
	l-3.5-0.699v-1.5h-1.3v-0.7c0,0-0.8-0.5-2.8-0.4c-2,0.101-2.7,0.8-2.7,0.8v1.9l-2.3,0.4v7.7l-2.5,0.3v-5.9l-1.4-0.2v-3l-4.1-1.8
	h-2.7v1h-0.899v2.4h-1.101v0.5l-9.399,2v5.399h-1.9v-0.899h-1v0.8h-0.8v-8.9l-4.5-0.7l-0.2-3.699l-0.1,3.399l-1.8-0.3l-1.801,0.3
	l-0.1-3.399l-0.1,3.399l-5,0.7v5.5h-0.7v0.7l-5.6,0.3v-7c0,0-0.101-0.2-0.301-0.4c-0.199-0.1-1.5-1.3-5.199-1.5
	c-3.601-0.3-9.8-0.399-9.8-0.399v8.8h-4.5v-16.7l-2-0.6v-1.4h0.6v-0.5h-0.6v-2.6c0,0-0.601-0.4-2.9-0.7s-4-0.3-4-0.3v-1.2
	l-4.899-0.3v1.7h-1.2v2.899h-1.8l1,1.2v24.2l-0.7,0.7v1.899h-1.2v1.7h-0.8v-1.1h-1.5v-2.101l-2.3-2.199v-1.4h-1.101v1.4l-2.3,2.3
	v2.3h-1.1v0.7h-1.2v1h-0.8v2h-1.5v3.899h-0.9v-1.5h-10.6v-2.5l-1.4-0.6v-1.3h-3.3v-0.7h-0.5v-1.2l-0.7-0.5h-4.699v1.601h-0.7v0.399
	h-1.1v0.5h-2.801v2.9h-1.3v-8.3h-0.899v-1.2h-6.2v1h-3.9v1h-7.1v-0.5h-1.6v0.399h-1.301v0.9h-3.699v1.3h-4v18.6h-1v0.3l-1.4-0.5
	v-7.499h-1.6v-2.5h-3v2h-4.4v-0.601l-0.699-0.3v-3.6h-3.7v-2.7h-3.8v-3.1h-0.9c0,0-0.1-2,0-2.5s1.6-0.4,1.6-0.4v-1.2l0.601-0.6v-0.7
	l0.6-0.4v-0.6l-2.3-0.4v-0.5h-0.5v-2.1h-0.5l-0.4-1.601l-0.199,1.601h-1.301l-0.5-8l-0.399,8h-2.2v2.1h-0.4v0.301l-2.199,0.5v0.5
	l0.7,0.6v1.1l0.6,0.301v1.1c0,0,0-0.2,0.7,0c0.699,0.2,0.899,0.7,0.899,0.7v1.5h-2.8l-4.7,0.8v17.899l-3.6-0.1v-26.4l-4.3-0.3v-1.5
	h-3.3v-0.5h-2.101l0.601-0.399v-0.7h-3v0.8h1.3l-2.2,0.9v1.1l-4.1,0.6v10.2h-7.4v-1.399c0,0-0.699-0.5-1.399-1.101
	c-0.601-0.6-1.2-1.699-1.2-1.699v4.199h-2.8v8.601h-1.4v5.399h-1.5v1.8h-0.899v-1.7l-2.9-1.1l-5.7,1v7.2h-0.899
	c0,0-0.9-1.101-1.2-2.3c-0.3-1.2-0.3-5.4-0.3-5.4s-0.101,0.6-0.601,1.5s-2.3,2.7-4,3.6c-1.6,0.9-3.3,1.5-3.3,1.5s-0.5-0.399-0.8-1.3
	c-0.3-0.899-0.8-4.7-0.8-4.7s-0.7,1.301-1.6,2.4c-0.9,1.1-3.101,2.5-3.101,2.5s-1.399-0.8-2.3-1.5s-2.2-3.1-2.2-3.1
	s-1.3,1.899-2.1,2.8c-0.9,0.899-2.5,2-2.5,2s-0.8-0.601-1.8-1.5c-1-0.9-2-2.8-2-2.8s0,3.699-0.2,3.5c-0.2-0.2-0.4-4.101-0.4-4.101
	l-1.199,1.5c0,0-2.301,3-3.601,2.9c-1.3,0-3.5-4.2-3.3-3.8c0.2,0.5-0.3,4.6-0.4,4.3c-0.1-0.3-0.6-5.101-0.6-5.101
	s-0.2,0.5-0.6,1.301c-0.4,0.8-2.2,2.699-3.601,3.5c-1.399,0.8-3.8-4.5-3.699-3.601c0.1,0.9-0.4,4.601-0.4,4.601s-1.7,0.199-4.1-0.5
	c-2.301-0.7-4.301-4.601-4.301-4.601s0,0.601,0,2.2c0,1.5-0.3,2.2-0.899,3.3c-0.601,1.101-4,0.8-4.6,1.2c-0.601,0.3-0.7,3.9-0.7,3.9
	l-17.8,0.5v14.1h845.889v-16.5H837.789z"/>
<path id="XMLID_14_" opacity="0.8" fill="#CCCCCC" enable-background="new    " d="M322.996,333.09l-0.7,0.7h-1.9v1.101h-1.5v-1.301
	h0.7l-2.7-1.5h-1.399v-9.5h-7.8v-1.1h-1.301v-9.6h-3.499v-2.4l0.1-0.1v-0.4l-1.5-1.2l-1.6,1.301v0.399l0.1,0.101v2.3h-2.4v3.1
	h-1.199v0.601h-0.5v9.499h-1.4l-0.4-35.999h-0.699v-0.7l-10.101,0.2v0.699h-1.399v23h-0.9v0.301h-0.399v-0.2h-0.601v0.5h-0.899v0.5
	h-1.301l-0.6,0.399v7h-0.1v4.9h-1v0.8h-1.5v0.5h-2.2v2h-2.8v1.5h-1.101l-1.399,0.5v1.6h-0.9v-8.899h-2v-3.5h-0.7v-0.3h-1v-0.7
	h-1.199v-1.1h-1v-1.601h-2.2v-8h0.2v-0.899h-0.601v-1.3h0.7v-0.801h-0.3v-0.5h-1.3v0.601h-3.8v-0.4h-0.801v-0.2h-0.6l-0.8,1.2v0.5
	h-0.601v-5.399l-1.6-0.101h-1.9v-0.5h-1.899v0.2h-0.4v0.3h-0.899v8.1l-1.4-0.699l-2.2,1.199h0.5v0.5l-0.699-0.199l-1.2,0.699v1.801
	h-0.5c0,0,0-0.4-0.4-0.4c-0.3,0-0.3,0.5-0.3,0.5l-0.1,0.1v0.5h0.3v3.2h-0.5v-1.2l-2.601-2.1l-1.8,1.3v-5.899h-0.8v-0.801h-1.4v-0.3
	h0.301v-0.1l-1.101-0.3v-1l-5.1,0.1v1l-0.5,0.3v0.2h0.399v0.7h-1.199v0.2h-0.8v5h-1.2v-15.4h-5.3v-0.6l-3.301,0.1v0.601h-2.6v8.999
	h-1.4v0.7h-1.3v2.601h-0.199v1.3l-2.101,0.1v0.7h-0.899v0.4h-1.101v5.5h-1.3v-5.601h-2.1v-1l-4,0.2v0.4h-0.801v0.399h-1.399v0.4
	h-0.601v0.6h0.2v4.9h-0.699v-0.7h-0.5v-0.6h-0.301v-0.7h-0.399v1.2l-0.4,0.399h-0.399v-0.8h-0.601v1.2h-2.3v4.8h-0.6v-10h-0.5v-3.3
	h-1.2v0.5h-0.9v1.1h-0.8v1.101h-1.4v0.899h-1.899v3.3h-0.9v-1.199h-0.2v-1.101h-2.8v-1h0.5v-0.399h-0.3v-1.9h-0.6v0.8l-0.2,0.9h-0.3
	v1.6h-0.3v1.101h-0.801l0.301,0.199v0.5h-0.301l0.301,0.301v0.3h-0.801v-0.4h-0.699v8.8h-0.7v-2.1h-0.601v-8l-3.399,0.1v-1.6h-0.9
	v-1.3h-0.5l0.4-0.8h-0.601v-7.2l-0.3-1l-0.2,1v9.5h-1l0.2,0.7h-0.5l0.4,0.6h-3.601v3.7h-1.6v0.899l-4.2,0.101l0.2-0.5h-0.7v-0.601
	l0.2-0.199l-0.2-0.2v-1.101h-1.399v-0.5h-1.3v0.601h-1.801v1.2l-0.199,0.199l0.199,0.2v0.4h-0.899l0.3,0.399v1.2h-0.5v1.4h-3.8v-0.9
	l-1.8-1.5l-1.601,1.5v1.1h-1.199v6.301h-0.4v-0.301h-1.4v-1.3h0.601l-2.5-1.5h1.3l-2.3-1.2l-2,1.101v-3h-0.601v-1l-2.5-2.101
	l-2.399,2.101v1.1h-0.5v2.9l-2.3-1l-2.2,1v0.399h-0.3v-1.6l-1.4,2.1v-9.1h-0.5v-4.899l-7,0.1v-0.9h-0.5v-10.999h-0.3v-5.7h0.3v-0.7
	h-8.1v0.7h0.2v3l-1.8,1.5v0.6h-0.301v0.8h-1.199v9.101h-1.301v-2.801l-0.3-0.3v-1l-0.2-1l-0.3,1.101v1l-0.1,0.3v2.7h-1.3v-22h-0.4
	v-10.4h-0.8v-7.3h-0.9v-4.899h-0.8v-3.9h-0.6v-1.5l-0.8-0.7v-0.7l-0.5-0.5v-0.699l-0.301-0.301v-0.5l-0.3-0.3v-0.8
	c0.2-0.1,0.3-0.3,0.3-0.5s-0.1-0.399-0.3-0.5l-0.2-6.6c0.101,0,0.101-0.101,0.101-0.2c0-0.2-0.101-0.3-0.3-0.3
	c-0.2,0-0.301,0.1-0.301,0.3c0,0.1,0.101,0.2,0.2,0.3l0.101,6.4c-0.2,0.1-0.301,0.3-0.301,0.5s0.101,0.399,0.301,0.5v0.8l-0.301,0.3
	v0.7l-0.3,0.3v0.7l-0.5,0.399v0.801l-0.7,0.699v1.5h-0.6v4h-0.9v4.7h-0.699v7.2h-0.5v10.3h-0.4v13.5h-9.399v-13.3h-0.5v-10.3h-0.601
	v-7.3h-0.899v-4.9h-1v-3.9h-0.801v-1.6l-0.6-0.6v-0.801l-0.5-0.399v-0.7l-0.3-0.5v-0.5h-0.3v-1.1c0.199-0.101,0.3-0.3,0.3-0.5
	s-0.101-0.4-0.4-0.5l-0.1-6.9c0.1,0,0.2-0.1,0.2-0.3c-0.101-0.1-0.2-0.2-0.301-0.2c-0.1,0-0.3,0.101-0.3,0.3
	c0,0.101,0.101,0.2,0.2,0.301v6.899c-0.2,0.101-0.3,0.3-0.3,0.5s0.1,0.4,0.3,0.5v1h-0.2v0.5l-0.6,0.4v0.8l-0.5,0.3v0.9l-0.601,0.5
	v1.6h-0.699v4h-1v4.9h-0.9v7.3h-0.5v10.3h-0.4l0.101,23.699l-5.3,0.101v-0.8l-1.3-0.301l-1.2,0.4v0.5h-1.7l-1-1l-0.3,0.2l-0.3-0.3
	l-1.301,0.8v4.2H54.9v-1.301h-0.4l-0.9-1.199l-1.3,1l-1.199-1l-1,1.199h-2.101v-1.6h-1.2v-2.1H46.4v-1.101l-2.101-1.899l-2.3,2
	v0.899H41.6v2.101h-0.9v2.1l-6.899,0.2v-1.4l-4.2,0.101v-1.7l-2.601,0.1v1H25.6v0.601h-0.8v-0.5h-1v-2h-1v-1.5h-0.5v-2h-4.8v-0.9
	h-1.7v1h-0.9l-0.2-27.899l0.5-1.4h0.7c0,0,1.3-3.2,1.3-3.3c0-0.101-0.1-0.8-0.5-1.3c-0.399-0.5-0.8-0.801-0.8-0.801h-1.1l0.1-2.8
	l-0.899-1v-10.699H13.4l-0.399,11l-0.7,0.699l-0.101,2.9h-0.8c0,0-0.3,0.2-0.899,0.899c-0.601,0.7-0.601,1.5-0.601,1.5l1.5,3.101H12
	l0.5,1.2l-1.2,28.8h-0.8L9.4,308.49v-1.199H2.7v1.999l-0.2,0.301v1H1.3v-1.2h-1.6v38.199h324.296v-14.5H322.996z M80.099,304.791
	c0,0,0.2-0.101,0.3-0.2c0.101-0.2,0.2-0.4,0.2-0.4l3.6-0.1c-0.199,0.2,0,0.5,0,0.5l-3.8,7.8L80.099,304.791z M88.299,313.39v2.1
	h-0.2v15.8h-3.1v-1.5h-3.601l-0.199-15.6h-0.7v-0.6l4.1-8.8l4.2,8.6H88.299z M89.099,312.99l-4.1-8.399c0,0,0.1,0,0.1-0.2
	s0-0.3,0-0.3h4V312.99z"/>
<g id="XMLID_2_" opacity="0.8" enable-background="new    ">
	<g>
		<defs>
			<rect id="SVGID_1_" x="323.996" y="256.991" width="218.997" height="93.699"/>
		</defs>
		<clipPath id="SVGID_2_">
			<use xlink:href="#SVGID_1_"  overflow="visible"/>
		</clipPath>
		<path id="XMLID_4_" clip-path="url(#SVGID_2_)" fill="#CCCCCC" d="M576.393,333.09l-0.8,0.7h-2.2v1.101h-1.8v-1.301h0.8l-3.1-1.5
			h-1.601v-9.5h-9v-1.1h-1.5v-9.6h-4v-2.4l0.2-0.1v-0.4l-1.7-1.2l-1.8,1.301v0.399l0.2,0.101v2.3h-2.7v3.1h-1.399v0.601h-0.601
			v9.499h-1.6l-0.5-35.999h-0.8v-0.7l-11.4,0.2v0.699h-1.6v23h-1v0.301h-0.5v-0.2h-0.7v0.5h-1v0.5h-1.5l-0.7,0.399v7h-0.1v4.9
			h-1.101v0.8h-1.699v0.5h-2.5v2h-3.2v1.5h-1.2l-1.5,0.5v1.6h-1v-8.899h-2.3v-3.5h-0.8v-0.3h-1.1v-0.7h-1.601v-1.1h-1.1v-1.601h-2.5
			v-8h0.3v-0.899h-0.7v-1.3h0.8v-0.801h-0.399v-0.5h-1.5v0.601h-4.5v-0.4h-1v-0.2h-0.601l-1,1.2v0.5h-0.699v-5.399l-1.801-0.101
			h-2.199v-0.5h-2.101v0.2h-0.5v0.3h-1v8.1l-1.6-0.699l-2.5,1.199h0.5v0.5l-0.8-0.199l-1.4,0.699v1.801h-0.399c0,0,0-0.4-0.4-0.4
			c-0.399,0-0.3,0.5-0.3,0.5l-0.2,0.1v0.5h0.3v3.2h-0.5v-1.2l-3-2.1l-2.1,1.3v-5.899h-0.9v-0.801h-1.6v-0.3h0.4v-0.1l-1.301-0.3v-1
			l-5.8,0.1v1l-0.5,0.3v0.2h0.4v0.7h-1.4v0.2h-0.899v5h-1.3v-15.4h-6v-0.6l-3.7,0.1v0.601h-2.9v8.999h-1.6v0.7h-1.5v2.601h-0.3v1.3
			l-2.4,0.1v0.7h-1v0.4h-1.399v5.5h-1.5v-5.601h-2.4v-1l-4.6,0.2v0.4h-0.9v0.399h-1.6v0.4h-0.7v0.6h0.3v4.9h-0.8v-0.7h-0.5v-0.6
			h-0.4v-0.7h-0.5v1.2l-0.5,0.399h-0.399v-0.8h-0.7v1.2h-2.6v4.8h-0.7v-10h-0.6v-3.3h-1.301v0.5h-1v1.1h-0.899v1.101h-1.601v0.899
			h-2.1v3.3h-1v-1.199h-0.399v-1.101h-3.2v-1h0.5v-0.399h-0.4v-1.9h-0.7v0.8l-0.199,0.9h-0.301v1.6h-0.3v1.101h-0.899l0.3,0.199v0.5
			h-0.3l0.399,0.301v0.3h-0.899v-0.4h-1v8.8h-0.801v-2.1h-0.699v-8l-3.9,0.1v-1.6h-1.1v-1.3h-0.601l0.5-0.8h-0.7v-7.2l-0.399-1
			l-0.2,1v9.5h-1.1l0.2,0.7h-0.601l0.4,0.6h-4.101v3.7h-1.8v0.899l-4.8,0.101l0.2-0.5h-0.8v-0.601l0.2-0.199l-0.2-0.2v-1.101h-1.601
			v-0.5h-1.5v0.601h-2.1v1.2l-0.2,0.199l0.3,0.2v0.4h-0.6l0.3,0.399v1.2h-0.6v1.4h-4.3v-0.9l-2.101-1.5l-1.8,1.5v1.1h-1.4v6.301
			h-0.5v-0.301h-1.6v-1.3h0.6l-2.8-1.5h1.5l-2.6-1.2l-2.3,1.101v-3h-0.7v-1l-2.9-2.101l-2.699,2.101v1.1h-0.601v2.9l-2.6-1l-2.5,1
			v0.399h-0.3v-1.6l-1.601,2.1v-9.1h-0.6v-4.899l-7.9,0.1v-0.9h-0.6v-10.999h-0.4v-5.7h0.4v-0.7h-9.2v0.7h0.301v3l-2,1.5v0.6h-0.4
			v0.8h-1.3v9.101h-1.5v-2.801l-0.3-0.3v-1l-0.2-1l-0.3,1.101v1l-0.2,0.3v2.7h-1.5v-22h-0.8v-10.4h-0.9v-7.3h-1v-4.899h-1v-3.9h-0.7
			v-1.5l-0.899-0.7v-0.7l-0.5-0.5v-0.699l-0.3-0.301v-0.5l-0.301-0.3v-0.8c0.2-0.1,0.301-0.3,0.301-0.5s-0.2-0.399-0.4-0.5l-0.2-6.6
			c0.101,0,0.2-0.101,0.2-0.2c0-0.2-0.1-0.3-0.3-0.3s-0.3,0.1-0.3,0.3c0,0.1,0.1,0.2,0.199,0.3l-0.1,6.601c-0.2,0.1-0.3,0.3-0.3,0.5
			c0,0.199,0.1,0.399,0.3,0.499v0.801l-0.3,0.3v0.7l-0.3,0.3v0.7l-0.5,0.399v0.8l-0.801,0.7v1.5h-0.699v4h-1v4.7h-0.8v7.2h-0.601
			v10.3h-0.399v13.5h-10.801v-13.5h-0.6v-10.3h-0.7v-7.3h-1v-4.9h-1.1v-3.9h-0.9v-1.6l-0.7-0.6v-0.801l-0.6-0.399v-0.7l-0.5-0.4
			v-0.6h-0.3v-1.1c0.2-0.101,0.399-0.3,0.399-0.5s-0.199-0.4-0.399-0.5l-0.3-6.9c0.1,0,0.199-0.1,0.199-0.3s-0.1-0.3-0.3-0.3
			s-0.3,0.1-0.3,0.3c0,0.1,0.1,0.2,0.2,0.3l-0.101,6.9c-0.199,0.1-0.399,0.3-0.399,0.5s0.1,0.399,0.399,0.5v1h-0.3v0.6l-0.5,0.4v0.8
			l-0.6,0.3v0.9l-0.7,0.5v1.6h-0.7v4h-1.1v4.9h-1v7.3h-0.5v10.3h-0.4l0.2,23.699l-6,0.101v-0.8l-1.5-0.301l-1.399,0.4v0.5h-1.9
			l-1.2-1l-0.399,0.2l-0.4-0.3l-1.5,0.8v4.2h-1.3v-1.301h-0.4l-1.3-1.1l-1.5,1l-1.399-1.1l-1.2,1.199h-2.4v-1.6h-1.3v-2.1h-0.5
			v-1.101l-2.399-1.899l-2.5,2.199v0.9h-0.5v2.1h-1.101v2.101l-7.8,0.2v-1.4l-4.8,0.1v-1.699l-3.1,0.1v1h-1.601v0.6h-0.899v-0.5
			h-1.2v-2.199h-1.101v-1.5h-0.6v-2h-5.5v-0.9h-1.9v1h-1.1l-0.2-27.899l0.601-1.4h0.8c0,0,1.5-3.2,1.5-3.3
			c0-0.101-0.101-0.8-0.5-1.3c-0.4-0.5-0.9-0.801-0.9-0.801h-1.3l0.101-2.8l-1.101-1v-10.699h-0.7l-0.3,10.8l-0.899,0.7
			l-0.101,2.899h-0.899c0,0-0.4,0.2-1.101,0.9c-0.7,0.699-0.7,1.5-0.7,1.5l1.7,3.1h0.7l0.6,1.2l-1.399,28.8h-0.9l-1.2-0.601v-1.199
			h-7.6v2l-0.3,0.3v1h-1.4v-1.2h-1.8v38.399h376.595v-14.5H576.393z M298.897,304.791c0,0,0.199-0.101,0.399-0.2
			c0.2-0.101,0.2-0.4,0.2-0.4l4.1-0.1c-0.2,0.2,0,0.5,0,0.5l-4.3,7.8L298.897,304.791z M308.296,313.39v2.1h-0.2v15.8h-3.6v-1.5
			h-4.1l-0.301-15.6h-0.8v-0.6l4.7-8.8l4.8,8.6H308.296z M309.197,312.99l-4.7-8.399c0,0,0.1,0,0.1-0.2s0-0.3,0-0.3h4.601V312.99z"
			/>
	</g>
</g>
<g id="XMLID_9_" opacity="0.8" enable-background="new    ">
	<g>
		<defs>
			<rect id="SVGID_3_" x="542.993" y="256.991" width="199.597" height="93.699"/>
		</defs>
		<clipPath id="SVGID_4_">
			<use xlink:href="#SVGID_3_"  overflow="visible"/>
		</clipPath>
		<path id="XMLID_11_" clip-path="url(#SVGID_4_)" fill="#CCCCCC" d="M483.493,333.09v14.5h375.796v-38.3h-1.9v1.301h-1.399v-1
			l-0.301-0.301v-1.999h-7.6v1.199l-1.2,0.601h-0.899l-1.4-28.8l0.601-1.2h0.699l1.7-3.101c0,0,0.101-0.8-0.7-1.5
			c-0.699-0.699-1.1-0.899-1.1-0.899h-0.9l-0.1-2.9l-0.9-0.699l-0.3-10.801h-0.7v10.7l-1.1,1l0.2,2.7h-1.3c0,0-0.5,0.3-0.9,0.8
			s-0.5,1.2-0.5,1.3c0,0.101,1.5,3.3,1.5,3.3h0.8l0.601,1.4l-0.2,27.899h-1v-0.999h-1.9v0.899h-5.5v2h-0.6v1.4h-1.1v1.899h-1.2v0.5
			h-0.9v-0.6h-1.6v-1l-3-0.101v1.7l-4.8-0.1v1.399l-7.8-0.199v-2.101h-1v-2.1h-0.601v-0.9l-2.5-2.199l-2.399,1.899v1.1h-0.5v2.101
			h-1.301v1.6h-2.399l-1.2-1.2l-1.4,1.101l-1.499-1l-1.301,1.1h-0.5v1.3h-1.3v-4.199l-1.5-0.801l-0.399,0.301l-0.4-0.2l-1.2,1
			h-1.899v-0.5l-1.4-0.4l-1.5,0.3v0.801l-6-0.101l0.2-23.699h-0.4v-10h-0.5v-7.3h-1v-4.9h-1.1v-4h-0.7v-1.6l-0.7-0.5v-0.9l-0.6-0.3
			v-0.8l-0.5-0.4v-0.5h-0.3v-1c0.2-0.1,0.399-0.3,0.399-0.5s-0.199-0.399-0.399-0.5l-0.101-6.899c0.101,0,0.2-0.101,0.2-0.301
			c0-0.199-0.1-0.3-0.3-0.3s-0.3,0.101-0.3,0.3c0,0.101,0.1,0.2,0.2,0.301l-0.301,6.899c-0.199,0.101-0.399,0.3-0.399,0.5
			s0.2,0.4,0.399,0.5v1.1h-0.199v0.4l-0.5,0.4v0.699l-0.601,0.4v0.8l-0.699,0.601v1.6h-0.9v3.9h-1.1v4.899h-1v7.3h-0.7v10.4h-0.5
			v13.399h-10.8v-13.5h-0.4v-10.3h-0.6v-7.199h-0.8v-4.7h-1v-4h-0.7v-1.5l-0.8-0.7v-0.8l-0.5-0.4v-0.7l-0.301-0.3v-0.7l-0.3-0.3
			v-0.8c0.2-0.1,0.3-0.3,0.3-0.5s-0.1-0.399-0.3-0.5l-0.1-6.6c0.1,0,0.2-0.101,0.2-0.3c0-0.2-0.101-0.301-0.301-0.301
			c-0.199,0-0.3,0.101-0.3,0.301c0,0.1,0.101,0.199,0.2,0.199l-0.2,6.601c-0.2,0.1-0.399,0.3-0.399,0.5s0.1,0.399,0.3,0.5v0.8
			l-0.3,0.3v0.6l-0.301,0.301v0.699l-0.5,0.5v0.7l-0.899,0.7v1.5h-0.7v3.9h-1v4.899h-1v7.3h-0.9v10.3h-0.6v22h-1.5v-2.7l-0.2-0.3
			v-1.1l-0.3-1.1l-0.2,1v1l-0.3,0.3v2.8h-1.5v-9.1h-1.3v-0.801h-0.4v-0.6l-2-1.5v-3h0.301v-0.7h-9.2v0.9h0.4v5.8h-0.4v11h-0.6v0.899
			l-7.9-0.1v4.9h-0.6v9.1l-1.601-2.101v1.5h-0.3v-0.5l-2.5-1l-2.6,1v-2.899h-0.601v-1.101l-2.699-2.1l-2.9,2.1v1h-0.7v3l-2.3-1.1
			l-2.6,1.2h1.399l-2.8,1.5h0.601v1.3h-1.601v0.3h-0.5v-6.3h-1.399v-1.1l-1.801-1.5l-2.1,1.5v0.899h-4.2v-1.399h-0.6v-1.2l0.3-0.4
			h-0.6v-0.399l0.3-0.2l-0.2-0.2v-1.2h-2.1v-0.6h-1.5v0.5h-1.601v1.1l-0.199,0.2l0.199,0.2v0.6h-0.8l0.2,0.5l-4.8-0.1v-0.9h-1.8
			v-3.699h-4.101l0.4-0.601h-0.6l0.199-0.7h-1.1v-9.499l-0.2-1l-0.399,1v7.199h-0.7l0.5,0.8h-0.6v1.301h-1.101v1.6l-3.899-0.1v7.999
			h-0.7v2.101h-0.8v-8.8h-0.801v0.399h-1v-0.3l0.4-0.3h-0.4v-0.5l0.3-0.2h-0.899v-1.1h-0.3v-1.601h-0.301l-0.199-0.899v-0.8h-0.7v2
			h-0.4v0.399h0.5v1h-3.2v1.101h-0.399v1.199h-1v-3.3h-2.101v-0.899h-1.6v-1.101h-0.9v-1.1h-1v-0.5h-1.3v3.3h-0.6v10h-0.7v-4.8h-2.6
			v-1.2h-0.7v0.8h-0.4l-0.5-0.399v-1.2h-0.5v0.7h-0.399v0.6h-0.5v0.7h-0.8v-4.9h0.3v-0.6h-0.7v-0.4h-1.5v-0.399h-0.9v-0.5l-4.5-0.2
			v1h-2.499v5.6h-1.5v-5.5h-1.5v-0.399h-1v-0.7l-2.4-0.101v-1.199h-0.3v-2.601h-1.4v-0.699h-1.6v-9h-2.9v-0.601l-3.7-0.1v0.6h-5.999
			v15.4h-1.301v-5h-0.899v-0.5h-1.4v-0.7h0.4v-0.2l-0.5-0.3v-1l-5.8-0.1v1l-1.3,0.3v0.1h0.399v0.3h-1.6v0.8h-0.9v5.9l-2.1-1.3
			l-3,2.1v1.2h-0.5v-3.2h0.3v-0.5l-0.2-0.1c0,0,0.101-0.5-0.3-0.5s-0.4,0.399-0.4,0.399h-0.399v-1.6l-1.4-0.7l-0.8,0.2v-0.5h0.5
			l-2.5-1.2l-1.6,0.7v-8.1h-1v-0.3h-0.5v-0.2h-2.2v0.5h-2.2l-1.8,0.1v5.4h-0.7v-0.5l-1-1.2h-0.6v0.2h-1v0.5h-4.4v-0.601h-1.5v0.5
			h-0.399v0.801h0.8v1.3h-0.7v0.8h0.3v8h-2.5v1.6h-1.1v1.101h-1.4v0.699h-1.1v0.301h-0.8v3.499h-2.3v9h-1v-1.399l-1.5-0.5h-1.2v-1.5
			h-3.1v-2h-2.5v-0.5h-1.7v-0.8h-1.3v-4.9h-0.101v-7l-0.7-0.399h-1.499v-0.5h-1v-0.5h-0.7l0,0h-0.5v-0.301h-1v-23h-1.601v-0.699
			l-11.5-0.101v0.7h-0.8l-0.5,36h-1.6v-9.6h-0.5v-0.601h-1.4v-3.1h-2.699v-2.3l0.199-0.101v-0.399l-1.8-1.301l-1.7,1.2v0.4l0.2,0.1
			v2.4h-4v9.6h-1.5v1.1h-8.899v9.5h-1.601l-3.1,1.5h0.8v1.2h-1.8v-1.1h-2.2l-0.8-0.7h-7.2V333.09z M767.29,312.39l-4.3-7.8
			c0,0,0.2-0.3,0-0.5l4.1,0.1c0,0,0.101,0.2,0.2,0.4s0.4,0.2,0.4,0.2L767.29,312.39z M757.691,313.39l4.8-8.6l4.7,8.8v0.5h-0.801
			l-0.3,15.6h-4.1v1.5h-3.6v-15.7h-0.2v-2.1H757.691z M757.29,304.091h4.6c0,0-0.1,0.1,0,0.3c0,0.2,0.101,0.2,0.101,0.2l-4.7,8.399
			V304.091L757.29,304.091z"/>
	</g>
</g>
<g id="XMLID_22_" opacity="0.8" enable-background="new    ">
	<g>
		<defs>
			<rect id="SVGID_5_" x="742.59" y="256.991" width="99.299" height="93.699"/>
		</defs>
		<clipPath id="SVGID_6_">
			<use xlink:href="#SVGID_5_"  overflow="visible"/>
		</clipPath>
		<path id="XMLID_24_" clip-path="url(#SVGID_6_)" fill="#CCCCCC" d="M683.091,333.09v14.5h375.796v-38.3h-1.9v1.301h-1.4v-1
			l-0.3-0.301v-1.999h-7.6v1.199l-1.2,0.601h-0.9l-1.399-28.8l0.6-1.2h0.7l1.7-3.101c0,0,0.1-0.8-0.7-1.5
			c-0.7-0.699-1.1-0.899-1.1-0.899h-0.9l-0.1-2.9l-0.9-0.699l-0.3-10.801h-0.7v10.7l-1.1,1l0.1,2.8h-1.3c0,0-0.5,0.3-0.9,0.8
			c-0.399,0.5-0.5,1.2-0.5,1.301c0,0.1,1.5,3.3,1.5,3.3h0.8l0.601,1.399l-0.2,27.9h-1.1v-1h-1.9v0.899h-5.5v2h-0.6v1.301h-1.1v1.899
			h-1.2v0.5h-0.9v-0.6h-1.6v-1l-3-0.101v1.7l-4.8-0.1v1.399l-7.8-0.199v-2.101h-1v-2.1h-0.5v-0.9l-2.5-2.199l-2.4,1.899v1.1h-0.5
			v2.101h-1.3v1.6h-2.4l-1.199-1.2l-1.4,1.101l-1.5-1l-1.3,1.1h-0.4v1.3h-1.3v-4.199l-1.5-0.801l-0.4,0.301l-0.399-0.2l-1.2,1h-1.8
			v-0.5l-1.4-0.4l-1.5,0.3v0.801l-5.999-0.101l0.199-23.699h-0.399v-10h-0.5v-7.3h-1v-4.9h-1.101v-4h-0.699v-1.6l-0.7-0.5v-0.9
			l-0.601-0.3v-0.8l-0.5-0.4v-0.5h-0.3v-1c0.2-0.1,0.4-0.3,0.4-0.5s-0.2-0.399-0.4-0.5l-0.1-6.899c0.1,0,0.2-0.101,0.2-0.301
			c0-0.199-0.101-0.3-0.301-0.3c-0.199,0-0.3,0.101-0.3,0.3c0,0.101,0.101,0.2,0.2,0.301l-0.3,6.899c-0.2,0.101-0.4,0.3-0.4,0.5
			s0.2,0.4,0.4,0.5v1.1h-0.3v0.4l-0.5,0.4v0.699l-0.601,0.4v0.8l-0.699,0.601v1.6h-0.9v3.9h-1.1v4.899h-1v7.3h-0.7v10.4h-0.5v13.399
			h-10.8v-13.5h-0.4v-10.3h-0.6v-7.199h-0.801v-4.7h-1v-4h-0.699v-1.5l-0.801-0.7v-0.8l-0.499-0.4v-0.7l-0.301-0.3v-0.7l-0.3-0.3
			v-0.8c0.2-0.1,0.3-0.3,0.3-0.5s-0.1-0.399-0.3-0.5l-0.1-6.6c0.1,0,0.2-0.101,0.2-0.3c0-0.2-0.101-0.301-0.301-0.301
			c-0.199,0-0.3,0.101-0.3,0.301c0,0.1,0.101,0.199,0.2,0.199l-0.2,6.601c-0.2,0.1-0.399,0.3-0.399,0.5s0.1,0.399,0.3,0.5v0.8
			l-0.3,0.3v0.6l-0.301,0.301v0.699l-0.5,0.5v0.7l-0.899,0.7v1.5h-0.7v3.9h-1v4.899h-1v7.3h-0.9v10.3h-0.5v22h-1.5v-2.7
			l-0.199-0.199v-1.101l-0.301-1.1l-0.199,1v1l-0.301,0.3v2.8h-1.5v-9.1h-1.3v-0.8h-0.399v-0.601l-2-1.5v-3h0.3v-0.7h-9.3v0.801
			h0.399v5.8h-0.399v11h-0.601v0.899l-7.899-0.1v4.9h-0.6v9.1l-1.601-2.101v1.5h-0.3v-0.5l-2.5-1l-2.6,1v-2.899h-0.601v-1.101
			l-2.7-2.1l-2.899,2.1v1h-0.7v3l-2.3-1.1l-2.6,1.2h1.399l-2.8,1.5h0.6v1.3h-1.6v0.3h-0.5v-6.3h-1.4v-1.1l-1.8-1.5l-2.1,1.5v0.899
			h-4.2v-1.399h-0.6v-1.2l0.3-0.4h-0.6v-0.399l0.3-0.2l-0.2-0.2v-1.2h-2.1v-0.6h-1.5v0.5h-1.601v1.1l-0.2,0.2l0.2,0.2v0.6h-0.8
			l0.2,0.5l-4.8-0.1v-0.9h-1.8v-3.699h-4.101l0.4-0.601h-0.6l0.199-0.7h-1.1v-9.499l-0.2-1l-0.399,1v7.199h-0.7l0.5,0.8h-0.601
			v1.301h-1.1v1.6l-3.9-0.1v7.999h-0.699v2.101h-0.801v-8.8h-0.8v0.399h-0.899v-0.3l0.399-0.3h-0.3v-0.5l0.3-0.2h-1.1v-1.1h-0.301
			v-1.601h-0.3l-0.199-0.899v-0.8h-0.7v2h-0.4v0.399h0.5v1h-3.2v1.101h-0.399v1.199h-1v-3.3h-2.101v-0.899h-1.6v-1.101h-0.9v-1.1h-1
			v-0.5h-1.399v3.3h-0.601v10h-0.699v-4.8h-2.601v-1.2h-0.7v0.8h-0.399l-0.5-0.399v-1.2h-0.5v0.7h-0.4v0.6h-0.5v0.7h-0.8v-4.9h0.3
			v-0.6h-0.6v-0.4h-1.6v-0.399h-0.9v-0.5l-4.5-0.2v1h-2.4v5.6h-1.5v-5.5h-1.399v-0.399h-1v-0.7l-2.4-0.101v-1.199h-0.3v-2.601h-1.4
			v-0.699h-1.6v-9h-3v-0.601l-3.7-0.1v0.6h-6v15.4h-1.3v-5h-0.899v-0.5h-1.4v-0.7h0.4v-0.2l-0.5-0.3v-1l-5.8-0.1v1l-1.301,0.3v0.1
			h0.4v0.3h-1.6v0.8h-0.9v5.9l-2.1-1.3l-3,2.1v1.2h-0.5v-3.2h0.3v-0.5l-0.2-0.1c0,0,0.101-0.5-0.3-0.5s-0.4,0.399-0.4,0.399h-0.399
			v-1.6l-1.4-0.7l-0.8,0.2v-0.5h0.5l-2.5-1.2l-1.6,0.7v-8.1h-1v-0.3h-0.5v-0.2h-2.2v0.5h-2.2l-1.8,0.1v5.4h-0.7v-0.5l-1-1.2h-0.6
			v0.2h-1v0.5h-4.5v-0.601h-1.5v0.5h-0.4v0.801h0.8v1.3h-0.699v0.8h0.3v8h-2.5v1.6h-1.101v1.101h-1.399v0.699h-1.1v0.301h-0.801
			v3.499h-2.3v9h-1v-1.399l-1.5-0.5h-1.3v-1.5h-3.1v-2h-2.5v-0.5h-1.7v-0.8h-1.1v-4.9h-0.101v-7l-0.7-0.399h-1.5v-0.5h-1v-0.5
			h-0.699l0,0h-0.5v-0.301h-1v-23h-1.601v-0.699l-11.5-0.101v0.7h-0.8l-0.5,36h-1.6v-9.6h-0.601v-0.601h-1.399v-3.1h-2.7v-2.3
			l0.2-0.101v-0.399l-1.8-1.301l-1.7,1.2v0.4l0.2,0.1v2.4h-4v9.6h-1.5v1.1h-8.9v9.5h-1.6l-3.1,1.5h0.8v1.2h-1.8v-1.1h-2.2l-0.8-0.7
			h-7.101V333.09z M966.787,312.39l-4.3-7.8c0,0,0.2-0.3,0-0.5l4.101,0.1c0,0,0.1,0.2,0.199,0.4c0.101,0.2,0.4,0.2,0.4,0.2
			L966.787,312.39z M957.188,313.39l4.8-8.6l4.7,8.8v0.5h-0.8l-0.3,15.6h-4.101v1.5h-3.5v-15.7h-0.199v-2.1H957.188z
			 M956.788,304.091h4.6c0,0-0.1,0.1,0,0.3c0,0.2,0.1,0.2,0.1,0.2l-4.699,8.399V304.091L956.788,304.091z"/>
	</g>
</g>
</svg>
