<?xml version="1.0" encoding="utf-8"?>
<!-- Generator: Adobe Illustrator 16.0.0, SVG Export Plug-In . SVG Version: 6.00 Build 0)  -->
<!DOCTYPE svg PUBLIC "-//W3C//DTD SVG 1.1//EN" "http://www.w3.org/Graphics/SVG/1.1/DTD/svg11.dtd">
<svg version="1.1" id="Layer_1" xmlns="http://www.w3.org/2000/svg" xmlns:xlink="http://www.w3.org/1999/xlink" x="0px" y="0px"
	 width="841.889px" height="106.141px" viewBox="0 489.14 841.889 106.141" enable-background="new 0 489.14 841.889 106.141"
	 xml:space="preserve">
<g id="XMLID_1_">
	<path id="XMLID_19_" opacity="0.71" fill="#E6E6E6" stroke="#FFFFFF" stroke-width="0.1573" enable-background="new    " d="
		M837.781,577.981v-11h-3.5v-3h-2.399v-1.1h-2.1v0.8h-1.801v0.7h-0.8v3.3h-1.1v6.399h-0.9v-11.1l-1.399-0.699l-1.301,0.399v-1.3
		h-3.699v6.3h-1.2v1.7h-0.6v0.7h-1.601v0.5h-1.6v0.5h-1.5v-1.301h-0.9v-0.699h-1.199v-0.7h-0.7v-0.5h-2.5v1.1h-1.1l-0.9,0.4v1
		h-1.399v1.899h-3.101v-0.8h-2.5v-5.8h-1.199v-1.3l-1.8-3.2l-2,3.101v1.5h-1.2v5.699h-0.601v1.4h-2.399v-1.3h-2.4v1.199h-5.3v-1.199
		h-2.199v1.399h-0.4v-5.6l-1.5-2h-5.1l-2.7,1.5v2.1h-1.399v-0.899h-1.801v0.8h-0.899v0.5h-1.8v-4.6h-3.9v-0.7h-2.6v-0.9h-4.4v-1.399
		h-4.299v1.699h-1.9v2.601h-0.6v2l-0.7-0.801h-2.8v-0.999h-2.101v1.1h-1.1v0.8h-0.8v3.2h-2.1v-1h-1v-0.7h-0.9v-0.3h1.3v-1.5h-4v-1.2
		h-0.899v-0.7h0.399v-1.8h-7.8v-2.3h-1.5v-1h-0.8v-1.399h-0.6v-1.101h-1.4v-2.1h-3.699l-1,0.7v1.6h-1.9l-1.3,1.8l-0.7-1.2h-4.2
		l0.4-0.699v-2.301l-6.399-0.1l-1.5,0.4v2h0.8v0.899h-2l-2.5,0.4l-0.5-0.601v-0.8h-1.5v-1.399h-0.9v-0.7h-3.1l-0.6,0.6v1.601h-2v1.1
		h-0.5v1.4h-0.8v-0.7l-0.8,0.8v3.899h-0.801v-1h-1.5v-1h-1.699v-1.3h-2.6v-1.399h-3.101l-0.5,0.5v2.199h-1.399v1l-0.301,0.301
		v10.399h-1.699v-10.2h-3.5v-0.8h-0.7v-0.399h-1.399v1.199h-0.7v-5.8l-1.5-4.5h-2v-2.1h-3.2v0.601h-0.6v-0.601h-3.5v8.5h-0.4v-2.6
		l-0.699-0.7h-0.601v-0.601l0.4-0.399l-0.8-0.7h-1.801v-2.1h-3.5v1.8h-1.6l-2.399,1.399v12.6h-3.9v-2.6l-0.899-0.9l-0.801,1v2.601
		h-3.899v-2.101h-1.4v-11.399l-0.8-0.8h-2.6v-2.9l-0.8-0.699h-0.601l-0.3-1.8l-0.2,1.8l-4.499,0.399v3.7h-2.601v2.3h-0.5v0.601h-1.8
		v1.899h-3v8.1h-1.7v-7.199h-2.999v-9.4h-0.7v-3.5h-1.7v-0.8h-1.899v-1.399h-4.2v1.399h-1.101v0.7h-2.6l-1.5,0.7v1.899h-2.8v0.7
		h-1.6v3.4h-1.4v12.399h-1.1v-2h-0.6v0.8h-1.3v1.2h-1.5v-0.6h-0.9l-0.7,0.699v2.8h-1.399v-25.099l-0.7-0.7l0.399-0.399h0.5v-0.9
		h-0.5v-0.7h0.5v-0.7c0,0-0.699-0.199-1-0.199c-0.3,0-1.699-0.101-1.699-0.101v-0.899l-2.101-1.101l-0.2-3.8l-0.1,3.8l-2.2,1.2v0.9
		c0,0-0.6,0-0.899,0s-1.4,0.199-1.4,0.199v0.9h0.4v0.7l-0.2,0.2v0.699h0.5l0.6,0.601l-0.899,0.5v9.1h-2.1v-2.8h-0.801v2.6h-0.8v-4.3
		h-3.399v4.199h-2.7v0.601h0.899v1.6l-0.8,0.4v1.7h-0.699v1.8h-1.4v-1.4l-2.1-1.8v-6.5l-0.5-0.7h-1l-0.7-0.6h-1.3l-0.9-0.7h-4.1v1.8
		l-1.2,1h-1.3v1.4h-0.7v5.2h-0.5v6.399h-1.399v-2.8h-2.101v-2h-1v-8.5l-0.899-0.899h-0.9l-1.1-1.101h-3.9v0.4h-1.399l-1-0.8h-2.4
		v1.2h-2.1v0.3h0.4v0.6h-0.7v0.3h0.399v0.7l-0.199,0.2v0.899h-0.801v1h-0.699l-1.101-1.1h-3.3l-1.399,1.4l-0.601-0.601v-1.6h-1v-6.2
		l-0.699-0.6h-1.2l-1.8-1.1h-2.7v1h-1l-0.399-0.4h-1.301v2.4h-0.8v-0.7l-0.8-0.5h-2.5v1.2h-1.8v0.3h1.2v0.6h-1.601v0.4h0.5v1.699
		h-0.399v-1h-2.601v-1.899h-3.499v1.8h-0.9v-3.7l0.7-0.8v-0.5h-1.2l-0.7-0.6h-1.6l-0.601-0.9h-2.399l-0.8,0.8h-1.5l-0.6,0.4v1.6
		h-0.9v3.9h-1.5v2.699h-0.4v-6.499h-0.399v-2.2l-1.601-0.601v-1.6l-0.6-0.6h-1.6l-0.8-0.8h-1.4v0.399h-0.8v-0.399h-1v3.1h-2.1v2.2
		h-0.4v2.6l-5.5,0.8l-0.5,1.2l0.5,1.3v15.6l-0.7-0.9l-0.699,0.9v5.6h-0.7v-11l-0.7-0.899v-12.1l-0.3-1.3h-1.3v-1.4l-1-0.5h-3.601
		v-1.1h-0.399v-2h0.6v-0.4l-3.699-2l-3.301-0.8v-3l-1.999-0.899h-1.9v1.399h-1.5v4.4h-1.2v4.5l-1.199,0.5v18.399h-2.5v-1h-1.7v1.3
		h-0.5v-11.2l-2.9-0.699v-4.9l-2-1h-1.699v-0.899h-2.2v-7l-4.7-3.9h-2.899l-4.2-1.399l-7.199,0.3v5.3l-0.4,0.5v9.1h-2v2.7h-0.699
		v1.6l-2.5-0.8v-19.3l-3.601-4l-2.199-3.699v3.199h-1.2l-1.4,4.801h-2.8v10.199l-2.899-0.7v-25.899l-2.8,0.301v-1h-1.4l-0.7-0.801
		l-3.5,0.2v2.3l-3.899,0.601v7.8h-0.7v7.1h0.7v10.999l-1.4,2.7v-2.899h-2.899v-0.9l0.3-0.5h-0.6l-0.301-1.2v1.4h-1.8l0.301,0.7
		h1.399v0.699h-4.899v0.9l-1.7,2.4v9.399h-1.4v2.2h-2.3v-1.9l-1.899-0.8v-3.7h-0.5v-11.699l-3.101-1.4h-2.1v-1.1l-2.1-1h-6.7v2.5
		h-4.6v-4.9h-2.2v-1.5l-8.499-2.3h-2.4l-8.8,1.9v6.8l-3.5-0.7v-1.5h-1.3v-0.7c0,0-0.8-0.5-2.8-0.399c-2,0.1-2.7,0.8-2.7,0.8v1.899
		l-2.3,0.4v7.7l-2.6,0.3v-5.9l-1.4-0.199v-3l-4.1-1.801h-2.7v1h-0.899v2.4h-1.101v0.5l-9.399,2v5.399H286.4v-0.899h-1v0.8h-0.801
		v-8.899l-4.499-0.7l-0.2-3.5l-0.101,3.399l-1.8-0.3l-1.8,0.3l-0.1-3.399l-0.101,3.399l-4.999,0.7v5.5h-0.7v0.7l-5.6,0.3v-7
		c0,0-0.101-0.2-0.301-0.399c-0.199-0.101-1.5-1.301-5.199-1.5c-3.601-0.301-9.8-0.4-9.8-0.4v8.8h-4.5v-16.8l-2-0.6v-1.4h0.6v-0.5
		h-0.6v-2.6c0,0-0.6-0.4-2.899-0.7c-2.301-0.3-4-0.3-4-0.3v-1.2l-4.9-0.3v1.7h-1.1v2.899h-1.8l1,1.2v23.8l-0.7,0.7v1.899h-1.2v1.7
		h-0.8v-1.2h-1.5v-2.1l-2.3-2.2v-1.399h-1.1v1.399l-2.301,2.3v2.3h-1.1v0.7h-1.2v1.1h-0.8v1.9h-1.5v3.9h-0.899v-1.5h-10.6v-2.5
		l-1.4-0.601v-1.3h-3.3v-0.7h-0.5v-1.199l-0.7-0.5h-4.699v1.6h-0.7v0.4h-1.101v0.5h-2.8v2.8h-1.3v-8.3h-0.899v-1.2h-6.2v1h-3.899v1
		h-7.101v-0.6h-1.6v0.399h-1.3v0.9h-3.7v1.3h-4v18.6h-1v0.3l-1.399-0.5v-7.5h-1.601v-2.6h-2.999v1.899h-4.4v-0.6l-0.7-0.3v-3.6
		h-3.699v-2.7h-3.8v-3.1h-0.9c0,0-0.1-2,0-2.5s1.6-0.4,1.6-0.4v-1.2l0.601-0.6v-0.7l0.6-0.4v-0.6l-2.3-0.399v-0.5h-0.5v-2.101h-0.5
		l-0.399-1.6l-0.2,1.6h-1.3l-0.5-7.999l-0.4,7.999h-2.2v2.101h-0.399v0.3l-2.2,0.5v0.5l0.7,0.6v1.1l0.6,0.301v1.1c0,0,0-0.2,0.7,0
		s0.899,0.7,0.899,0.7v1.8h-2.8l-4.699,0.8v17.899l-3.601-0.1v-26.399l-4.3-0.3v-1.5h-3.3v-0.4h-2.1l0.6-0.4v-0.6h-3v0.8h1.301
		l-2.2,0.9v1.1l-4.1,0.601v10.199h-7.4v-1.6c0,0-0.7-0.5-1.399-1.101c-0.601-0.6-1.2-1.699-1.2-1.699v4.199h-2.8v8.6h-1.4v5.4h-1.5
		v1.8h-0.899v-1.7l-2.9-1.1l-5.699,1v7.199h-0.9c0,0-0.9-1.1-1.2-2.3c-0.3-1.199-0.3-5.399-0.3-5.399s-0.1,0.6-0.6,1.5
		c-0.5,0.899-2.3,2.7-4,3.6c-1.6,0.9-3.3,1.5-3.3,1.5s-0.5-0.4-0.8-1.3c-0.301-0.9-0.801-4.7-0.801-4.7s-0.699,1.3-1.6,2.4
		c-0.899,1.1-3.1,2.5-3.1,2.5s-1.4-0.8-2.3-1.5c-0.9-0.7-2.2-3.101-2.2-3.101s-1.3,1.9-2.1,2.801c-0.9,0.899-2.5,2-2.5,2
		s-0.8-0.601-1.8-1.5c-1-0.9-2-2.801-2-2.801s0,3.7-0.2,3.5c-0.2-0.199-0.4-4.1-0.4-4.1l-1.2,1.5c0,0-2.3,3-3.6,2.9
		c-1.3,0-3.5-4.2-3.3-3.801c0.2,0.5-0.3,4.601-0.399,4.301c-0.101-0.301-0.601-5.101-0.601-5.101s-0.2,0.5-0.6,1.3
		c-0.4,0.801-2.2,2.7-3.6,3.5c-1.4,0.801-3.801-4.5-3.7-3.6c0.1,0.9-0.4,4.6-0.4,4.6s-1.699,0.2-4.1-0.5c-2.3-0.699-4.3-4.6-4.3-4.6
		s0,0.6,0,2.2c0,1.5-0.3,2.2-0.9,3.3c-0.6,1.1-3.999,0.8-4.6,1.2c-0.6,0.3-0.7,3.899-0.7,3.899l-17.799,0.7v14.1H844.88v-16.6
		H837.781z"/>
	<path id="XMLID_14_" opacity="0.8" fill="#CCCCCC" enable-background="new    " d="M322.998,580.581l-0.7,0.7h-1.9v1.1h-1.5v-1.199
		h0.7l-2.699-1.5h-1.4v-9.5h-7.8v-1.1h-1.3v-9.6h-3.5v-2.4l0.1-0.1v-0.4l-1.499-1.2l-1.601,1.3v0.4l0.101,0.1v2.3h-2.4v3.101h-1.2
		v0.6h-0.5v9.5h-1.399l-0.4-35.999h-0.7v-0.7l-10.1,0.101v0.699H281.9v23h-0.9v0.3H280.6v-0.1h-0.601v0.5H279.1v0.499h-1.301
		l-0.6,0.4v7h-0.1v4.899h-1v0.8h-1.5v0.5h-2.2v2h-2.8v1.5h-1.1l-1.4,0.5v1.4h-0.9v-8.899H264.2v-3.5h-0.7v-0.301h-1v-0.699h-1.2
		v-1.101h-1v-1.6h-2.2v-8h0.2v-0.8h-0.6v-1.3h0.7v-0.8H258.1v-0.5h-1.3v0.6H253v-0.399h-0.8v-0.2h-0.6l-0.801,1.2v0.5h-0.6v-5.2
		l-1.6-0.1h-1.9v-0.5h-1.899v0.199h-0.4v0.301h-0.9v8.1l-1.399-0.7l-2.2,1.2h0.5v0.5l-0.7-0.2l-1.199,0.7v1.6h-0.5
		c0,0,0-0.4-0.4-0.4c-0.3,0-0.3,0.5-0.3,0.5l-0.101,0.101v0.5h0.301v3.199h-0.5v-1.2l-2.601-2.1l-1.8,1.3v-5.899h-0.8v-0.8h-1.4
		v-0.3h0.301v-0.101l-1.101-0.3v-1l-5.1,0.1v1l-0.5,0.301v0.199h0.4v0.7h-1.2v0.5h-0.8v4.9h-1.2v-15.399h-5.3v-0.601l-3.3,0.101v0.6
		h-2.6v9h-1.4v0.699h-1.3v2.601h-0.2v1.3l-2.1,0.1v0.7h-0.9v0.4h-1.1v5.499h-1.3v-5.6h-2.101v-1l-4,0.2v0.5h-0.8v0.4h-1.399v0.399
		h-0.601v0.601h0.2v4.899h-0.7v-0.7h-0.5v-0.6h-0.3v-0.7h-0.399v1.2l-0.4,0.4h-0.4v-0.801h-0.6v1.2h-2.3v4.8h-0.6v-9.999h-0.5v-3.5
		h-1.2v0.5h-0.9v1.1h-0.8v1.1h-1.399v0.9h-1.9v3.3h-0.9v-1.2h-0.199v-1.1h-2.8v-1h0.5v-0.4h-0.301v-1.899h-0.6v0.8l-0.2,0.899h-0.3
		v1.601h-0.3v1.1h-0.8l0.3,0.2v0.5h-0.3l0.3,0.3v0.3h-0.8v-0.399h-0.7v8.799h-0.7v-2.1h-0.6v-8l-3.4,0.101v-1.601h-0.899v-1.3h-0.5
		l0.399-0.8h-0.6v-7.199l-0.3-1l-0.2,1v9.499h-1l0.2,0.7h-0.5l0.399,0.6h-3.6v3.7h-1.6v0.9l-4.2,0.1l0.2-0.5h-0.7v-0.6l0.2-0.2
		l-0.2-0.2v-1.1h-1.4v-0.5h-1.3v0.6h-1.8v1.2l-0.2,0.2l0.2,0.2v0.399h-0.899l0.3,0.4v1.2h-0.5v1.399h-3.8v-0.899l-1.8-1.5
		l-1.601,1.5v1.1h-1.199v6.3h-0.4v-0.3h-1.4v-1.3h0.601l-2.5-1.5h1.3l-2.3-1.2l-2,1.1v-3h-0.6v-1l-2.5-2.1l-2.4,2.1v1.101h-0.5
		v2.899l-2.3-1l-2.2,1v0.5h-0.3v-1.6l-1.399,2.1v-9.1h-0.5v-4.899l-7,0.1v-0.9h-0.5v-10.999h-0.3v-5.8h0.3v-0.7h-8.1v0.7h0.2v3
		l-1.801,1.5v0.6h-0.3v0.8h-1.2v9.1h-1.3v-2.8l-0.3-0.3v-1l-0.2-1l-0.3,1.1v1.101l-0.1,0.3v2.7h-1.3v-22h-0.4v-10.3h-0.8v-7.299
		h-0.9v-4.9h-0.8v-3.899h-0.6v-1.5l-0.801-0.7v-0.7l-0.5-0.5v-0.7l-0.3-0.3v-0.6l-0.3-0.3v-0.801c0.2-0.1,0.3-0.3,0.3-0.5
		c0-0.199-0.1-0.399-0.3-0.5l-0.2-6.6c0.101,0,0.101-0.1,0.101-0.2c0-0.199-0.101-0.3-0.3-0.3c-0.2,0-0.301,0.101-0.301,0.3
		c0,0.101,0.101,0.2,0.2,0.301l-0.1,6.6c-0.2,0.1-0.3,0.3-0.3,0.5s0.1,0.399,0.3,0.5v0.8l-0.3,0.3v0.7l-0.301,0.3v0.7l-0.5,0.399
		v0.801l-0.699,0.699v1.5h-0.601v4h-0.899v4.7h-0.5v7.199h-0.5v10h-0.4v13.5h-9.399v-13.399h-0.5v-10.3h-0.601v-7.3h-0.899v-4.9h-1
		v-3.899h-0.8v-1.6l-0.601-0.601v-0.8l-0.5-0.4v-0.699l-0.399-0.4v-0.5h-0.3v-1.1c0.199-0.101,0.3-0.3,0.3-0.5s-0.101-0.4-0.4-0.5
		l-0.2-6.9c0.101,0,0.2-0.1,0.2-0.3s-0.1-0.3-0.3-0.3s-0.3,0.1-0.3,0.3c0,0.101,0.1,0.2,0.2,0.3v6.9c-0.2,0.1-0.301,0.3-0.301,0.5
		s0.101,0.399,0.301,0.5v1h-0.2v0.5l-0.4,0.399v0.8l-0.5,0.301v0.899l-0.6,0.5v1.601h-0.7v3.999h-1v4.9h-0.899v7.3h-0.5v10.3h-0.4
		l0.1,23.699l-5.3,0.1v-0.8l-1.3-0.3l-1.2,0.399v0.5h-1.699l-1-1l-0.3,0.2l-0.301-0.3l-1.3,0.8v4.2h-1.2v-1.3h-0.399l-1.2-1.101
		l-1.3,1l-1.2-1.1l-1,1.2h-1.8v-1.601h-1.2v-2.1h-0.399v-1.1l-2.101-1.9l-2.199,2.2v0.9h-0.4v2.1h-0.899v2.1l-6.9,0.2v-1.4
		l-4.199,0.101v-1.8l-2.7,0.1v1h-1.4v0.6h-0.8v-0.5h-1v-1.899h-1v-1.5h-0.5v-2h-4.8v-0.9h-1.7v1h-0.899l-0.3-27.898l0.5-1.4h0.699
		c0,0,1.301-3.2,1.301-3.3s-0.101-0.8-0.5-1.3c-0.4-0.5-0.801-0.8-0.801-0.8h-1.1l0.1-2.8l-0.899-1v-10.7h-0.601l-0.3,10.8
		l-0.699,0.7l-0.101,2.899h-0.8c0,0-0.3,0.2-0.9,0.9c-0.6,0.7-0.6,1.5-0.6,1.5l1.5,3.1h0.6l0.5,1.2l-1.199,28.799h-0.801l-1.1-0.6
		v-1.2h-6.7v2l-0.3,0.3v1h-1.1v-1.2h-1.6v38.199h329.688v-14.5H322.998L322.998,580.581z M80.106,552.282c0,0,0.2-0.1,0.301-0.2
		c0.1-0.2,0.199-0.4,0.199-0.4l3.601-0.1c-0.2,0.2,0,0.5,0,0.5l-3.8,7.8L80.106,552.282z M88.306,560.882v2.1h-0.2v15.8h-3.1v-1.5
		h-3.6l-0.2-15.6h-0.7v-0.5l4.1-8.8l4.2,8.6h-0.5V560.882z M89.106,560.482l-4.1-8.4c0,0,0.1,0,0.1-0.2s0-0.3,0-0.3h4V560.482z"/>
	<path id="XMLID_9_" opacity="0.8" fill="#CCCCCC" enable-background="new    " d="M837.481,580.581l-0.7,0.7h-1.899v1.1h-1.5
		v-1.199h0.699l-2.699-1.5h-1.4v-9.5h-7.8v-1.1h-1.3v-9.6h-3.5v-2.4l0.101-0.1v-0.4l-1.5-1.2l-1.601,1.3v0.4l0.101,0.1v2.3h-2.4
		v3.101h-1.2v0.6h-0.5v9.5h-1.399l-0.4-35.999h-0.6v-0.7l-10.1,0.101v0.699h-1.399v23h-0.9v0.3h-0.4v-0.1h-0.6v0.5h-0.9v0.499h-1.3
		l-0.6,0.4v7h-0.101v4.899h-1v0.8h-1.5v0.5h-2.199v2h-2.8v1.5h-1.101l-1.399,0.5v1.4h-0.9v-8.899h-2v-3.5h-0.7v-0.301h-1v-0.699
		h-1.199v-1.101h-1v-1.6h-2.2v-8h0.2v-0.8h-0.6v-1.3h0.699v-0.8h-0.3v-0.5h-1.3v0.6h-3.9v-0.399h-0.8v-0.2h-0.6l-0.8,1.2v0.5h-0.601
		v-5.2l-1.6-0.1h-1.899v-0.5h-1.9v0.199h-0.4v0.301h-0.899v8.1l-1.4-0.7l-2.2,1.2h0.5v0.5l-0.699-0.2l-1.2,0.7v1.6h-0.3
		c0,0,0-0.4-0.4-0.4c-0.3,0-0.3,0.5-0.3,0.5l-0.101,0.101v0.5h0.301v3.199h-0.5v-1.2l-2.601-2.1l-1.8,1.3v-5.899h-0.8v-0.8h-1.399
		v-0.3h0.3v-0.101l-1.101-0.3v-1l-5.1,0.1v1l-0.5,0.301v0.199h0.4v0.7h-1.2v0.5h-0.8v4.9h-1.2v-15.399h-5.3v-0.601l-3.3,0.101v0.6
		h-2.6v9h-1.4v0.699h-1.3v2.601h-0.2v1.3l-2.1,0.1v0.7h-0.9v0.4h-1.3v5.499h-1.3v-5.6h-2.1v-1l-4,0.2v0.5h-0.8v0.4h-1.4v0.399h-0.6
		v0.601h0.199v4.899h-0.699v-0.7h-0.5v-0.6h-0.3v-0.7h-0.4v1.2l-0.4,0.4h-0.399v-0.801h-0.601v1.2h-2.3v4.8h-0.6v-9.999h-0.5v-3.5
		h-1.2v0.5h-0.899v1.1h-0.7v1.1h-1.4v0.9h-1.899v3.3h-0.9v-1.2h-0.4v-1.1h-2.8v-1h0.5v-0.4h-0.3v-1.899h-0.6v0.8l-0.2,0.899h-0.3
		v1.601h-0.2v1.1h-0.8l0.3,0.2v0.5h-0.3l0.3,0.3v0.3h-0.8v-0.399h-0.7v8.799h-0.7v-2.1h-0.6v-8l-3.4,0.101v-1.601h-0.899v-1.3h-0.5
		l0.399-0.8h-0.8v-7.199l-0.3-1l-0.2,1v9.499h-1l0.2,0.7h-0.5l0.4,0.6h-3.6v3.7h-1.601v0.9l-4.2,0.1l0.2-0.5h-0.7v-0.6l0.2-0.2
		l-0.2-0.2v-1.1h-1.399v-0.5h-1.3v0.6h-2v1.2l-0.2,0.2l0.2,0.2v0.399h-0.6l0.3,0.4v1.2h-0.5v1.399h-3.7v-0.899l-1.8-1.5l-1.6,1.5
		v1.1h-1.2v6.3h-0.4v-0.3h-1.399v-1.3h0.6l-2.5-1.5h1.3l-2.3-1.2l-2,1.1v-3h-0.6v-1l-2.5-2.1l-2.4,2.1v1.101h-0.5v2.899l-2.3-1
		l-2.199,1v0.5h-0.301v-1.6l-1.399,2.1v-9.1h-0.5v-4.899l-7,0.1v-0.9h-0.5v-10.999h-0.3v-5.8h0.3v-0.7h-8.1v0.7h0.2v3l-1.8,1.5v0.6
		h-0.3v0.8h-1.2v9.1h-1.3v-2.8l-0.301-0.3v-1l-0.199-1l-0.301,1.1v1.101l-0.1,0.3v2.7h-1.3v-22h-0.4v-10.3h-0.8v-7.299h-0.9v-4.9
		h-0.8v-3.899h-0.6v-1.5l-0.8-0.7v-0.7l-0.5-0.5v-0.7l-0.3-0.3v-0.6l-0.3-0.3v-0.801c0.199-0.1,0.3-0.3,0.3-0.5
		c0-0.199-0.101-0.399-0.3-0.5l-0.2-6.6c0.1,0,0.1-0.1,0.1-0.2c0-0.199-0.1-0.3-0.3-0.3s-0.3,0.101-0.3,0.3
		c0,0.101,0.1,0.2,0.2,0.301l-0.101,6.6c-0.2,0.1-0.3,0.3-0.3,0.5s0.1,0.399,0.3,0.5v0.8l-0.3,0.3v0.7l-0.3,0.3v0.7l-0.5,0.399
		v0.801l-0.7,0.699v1.5h-0.6v4h-0.9v4.7h-0.7v7.199h-0.3v10h-0.4v13.5h-9.399v-13.399h-0.5v-10.3h-0.6v-7.3h-0.9v-4.9h-1v-3.899
		h-0.8v-1.6l-0.6-0.601v-0.8l-0.5-0.4v-0.699l-0.4-0.4v-0.5h-0.3v-1.1c0.2-0.101,0.3-0.3,0.3-0.5s-0.1-0.4-0.4-0.5l-0.199-6.9
		c0.1,0,0.199-0.1,0.199-0.3s-0.1-0.3-0.3-0.3s-0.3,0.1-0.3,0.3c0,0.101,0.1,0.2,0.2,0.3v6.9c-0.2,0.1-0.3,0.3-0.3,0.5
		s0.1,0.399,0.3,0.5v1h-0.101v0.5l-0.399,0.399v0.8l-0.5,0.301v0.899l-0.6,0.5v1.601h-0.7v3.999h-1v4.9h-0.9v7.3h-0.5v10.3h-0.399
		l0.1,23.699l-5.3,0.1v-0.8l-1.3-0.3l-1.2,0.399v0.5h-1.7l-1-1l-0.3,0.2l-0.3-0.3l-1.3,0.8v4.2h-1.2v-1.3h-0.399l-1.2-1.101l-1.3,1
		l-1.2-1.1l-1,1.2h-2.101v-1.601h-1.199v-2.1h-0.4v-1.1l-2.1-1.9l-2.2,2.2v0.9h-0.399v2.1h-0.9v2.1l-6.9,0.2v-1.4l-4.199,0.101v-1.8
		l-2.7,0.1v1h-1.399v0.6h-0.801v-0.5h-1v-1.899h-1v-1.5h-0.5v-2h-4.8v-0.9h-1.699v1h-0.9l-0.2-27.899l0.5-1.399h0.7
		c0,0,1.3-3.2,1.3-3.3c0-0.101-0.1-0.8-0.5-1.3c-0.399-0.5-0.8-0.8-0.8-0.8h-1.1l0.1-2.801l-0.899-1v-10.699h-0.601l-0.3,10.8
		l-0.7,0.7l-0.1,2.899h-0.8c0,0-0.301,0.2-0.9,0.9s-0.6,1.5-0.6,1.5l1.5,3.1h0.6l0.5,1.2l-1.2,28.799h-0.8l-1.1-0.6v-1.2h-6.6v2
		l-0.301,0.3v1h-1.199v-1.2h-1.601v38.199h329.689v-14.5H837.481L837.481,580.581z M594.589,552.282c0,0,0.2-0.1,0.3-0.2
		c0.1-0.2,0.2-0.4,0.2-0.4l3.6-0.1c-0.2,0.2,0,0.5,0,0.5l-3.8,7.8L594.589,552.282z M602.788,560.882v2.1h-0.2v15.8h-3.1v-1.5h-3.6
		l-0.2-15.6h-0.7v-0.5l4.1-8.8l4.2,8.6h-0.5V560.882z M603.588,560.482l-4.1-8.4c0,0,0.1,0,0.1-0.2s0-0.3,0-0.3h4V560.482z"/>
	<g id="XMLID_2_" opacity="0.8" enable-background="new    ">
		<g>
			<defs>
				<rect id="SVGID_1_" x="323.998" y="504.584" width="194.093" height="93.696"/>
			</defs>
			<clipPath id="SVGID_2_">
				<use xlink:href="#SVGID_1_"  overflow="visible"/>
			</clipPath>
			<path id="XMLID_4_" clip-path="url(#SVGID_2_)" fill="#CCCCCC" d="M544.891,580.581l-0.7,0.7h-1.9v1.1h-1.5v-1.199h0.7l-2.7-1.5
				h-1.399v-9.5h-7.8v-1.1h-1.3v-9.6h-3.5v-2.4l0.1-0.1v-0.4l-1.5-1.2l-1.6,1.3v0.4l0.1,0.1v2.3h-2.399v3.101h-1.2v0.6h-0.5v9.5
				h-1.4l-0.399-35.999h-0.7v-0.7l-10.1,0.101v0.699h-1.4v23h-0.8v0.3h-0.399v-0.1h-0.601v0.5h-0.899v0.499h-1.3l-0.601,0.4v7
				h-0.199v4.899h-1v0.8h-1.5v0.5h-2.2v2h-2.8v1.5h-1.101l-1.399,0.5v1.4h-0.9v-8.899h-2v-3.5h-0.699v-0.301h-1v-0.699h-1.2v-1.101
				h-1v-1.6h-2.2v-8h0.2v-0.8h-0.6v-1.3h0.699v-0.8h-0.3v-0.5h-1.3v0.6h-3.899v-0.399h-0.801v-0.2h-0.6l-0.8,1.2v0.5h-0.601v-5.2
				l-1.6-0.1h-1.899v-0.5h-1.9v0.199h-0.4v0.301h-0.899v8.1l-1.4-0.7l-2.199,1.2h0.5v0.5l-0.7-0.2l-1.2,0.7v1.6h-0.3
				c0,0,0-0.4-0.4-0.4c-0.3,0-0.3,0.5-0.3,0.5l-0.1,0.101v0.5h0.3v3.199h-0.5v-1.2l-2.6-2.1l-1.801,1.3v-5.899h-0.8v-0.8h-1.399
				v-0.3h0.3v-0.101l-1.1-0.3v-1l-5.101,0.1v1l-0.5,0.301v0.199h0.4v0.7h-1.2v0.5h-0.8v4.9h-1.2v-15.399h-5.3v-0.601l-3.3,0.101v0.6
				h-2.6v9h-1.4v0.699h-1.3v2.601h-0.2v1.3l-2.1,0.1v0.7h-0.9v0.4h-1.3v5.499h-1.3v-5.6h-2.1v-1l-4,0.2v0.5h-0.8v0.4h-1.4v0.399
				h-0.6v0.601h0.2v4.899h-0.7v-0.7h-0.5v-0.6h-0.3v-0.7h-0.4v1.2l-0.399,0.4h-0.4v-0.801h-0.6v1.2h-2.3v4.8h-0.601v-9.999h-0.5
				v-3.5h-1.199v0.5h-0.9v1.1h-0.8v1.1h-1.2v0.9h-1.9v3.3h-0.899v-1.2h-0.2v-1.1h-2.8v-1h0.5v-0.4h-0.3v-1.899h-0.601v0.8
				l-0.199,0.899h-0.301v1.601h-0.199v1.1h-0.801l0.301,0.2v0.5h-0.301l0.301,0.3v0.3h-0.801v-0.399h-0.699v8.799h-0.7v-2.1h-0.6v-8
				l-3.4,0.101v-1.601h-0.9v-1.3h-0.499l0.399-0.8h-0.6v-7.199l-0.3-1l-0.2,1v9.499h-1l0.2,0.7h-0.5l0.399,0.6h-3.6v3.7h-1.6v0.9
				l-4.2,0.1l0.2-0.5h-0.7v-0.6l0.2-0.2l-0.2-0.2v-1.1h-1.4v-0.5h-1.3v0.6h-1.8v1.2l-0.2,0.2l0.2,0.2v0.399h-0.6l0.3,0.4v1.2h-0.5
				v1.399h-3.7v-0.899l-1.8-1.5l-1.6,1.5v1.1h-1.2v6.3h-0.4v-0.3h-1.399v-1.3h0.6l-2.5-1.5h1.3l-2.3-1.2l-2,1.1v-3h-1.199v-1
				l-2.5-2.1l-2.4,2.1v1.101h-0.5v2.899l-2.3-1l-2.2,1v0.5h-0.3v-1.6l-1.399,2.1v-9.1h-0.5v-4.899l-7,0.1v-0.9h-0.5v-10.999h-0.3
				v-5.8h0.3v-0.7h-8.1v0.7h0.2v3l-1.801,1.5v0.6h-0.3v0.8h-1.199v9.1h-1.301v-2.8l-0.3-0.3v-1l-0.2-1l-0.3,1.1v1.101l-0.1,0.3v2.7
				h-1.3v-22h-0.4v-10.3h-0.8v-7.299h-0.9v-4.9h-0.8v-3.899h-0.6v-1.5l-0.8-0.7v-0.7l-0.5-0.5v-0.7l-0.301-0.3v-0.6l-0.3-0.3v-0.801
				c0.2-0.1,0.3-0.3,0.3-0.5c0-0.199-0.1-0.399-0.3-0.5l-0.199-6.6c0.1,0,0.1-0.1,0.1-0.2c0-0.199-0.1-0.3-0.3-0.3
				s-0.3,0.101-0.3,0.3c0,0.101,0.1,0.2,0.199,0.301l-0.1,6.6c-0.2,0.1-0.3,0.3-0.3,0.5s0.1,0.399,0.3,0.5v0.8l-0.3,0.3v0.7
				l-0.3,0.3v0.7l-0.5,0.399v0.801l-0.7,0.699v1.5h-0.601v4h-0.899v4.7h-0.4v7.199h-0.5v10h-0.399v13.5h-9.4v-13.399h-0.5v-10.3
				h-0.6v-7.3h-0.9v-4.9h-1v-3.899h-0.699v-1.6l-0.601-0.601v-0.8l-0.5-0.4v-0.699l-0.399-0.4v-0.5h-0.301v-1.1
				c0.2-0.101,0.301-0.3,0.301-0.5s-0.101-0.4-0.4-0.5l-0.2-6.9c0.101,0,0.2-0.1,0.2-0.3s-0.1-0.3-0.3-0.3s-0.3,0.1-0.3,0.3
				c0,0.101,0.1,0.2,0.2,0.3v6.9c-0.2,0.1-0.301,0.3-0.301,0.5s0.101,0.399,0.301,0.5v1h-0.2v0.5l-0.4,0.399v0.8l-0.5,0.301v0.899
				l-0.6,0.5v1.601h-0.7v3.999h-1v4.9h-0.9v7.3h-0.5v10.3h-0.399l0.1,23.699l-5.3,0.1v-0.8l-1.3-0.3l-1.2,0.399v0.5H281.1l-1-1
				l-0.301,0.2l-0.3-0.3l-1.3,0.8v4.2h-1.2v-1.3H276.6l-1.2-1.101l-1.3,1l-1.2-1.1l-1,1.2h-2.1v-1.601h-1.2v-2.1h-0.4v-1.1l-2.1-1.9
				l-2.2,2.2v0.9H263.5v2.1h-0.9v2.1l-6.899,0.2v-1.4l-4.2,0.101v-1.8l-2.699,0.1v1h-1.4v0.6h-0.8v-0.5h-1v-1.899h-1v-1.5h-0.5v-2
				h-4.8v-0.9h-1.7v1h-0.899l-0.2-27.899l0.5-1.399h0.7c0,0,1.3-3.2,1.3-3.3c0-0.101-0.101-0.8-0.5-1.3c-0.4-0.5-0.8-0.8-0.8-0.8
				h-1.101l0.101-2.801l-0.9-1v-10.699h-0.6l-0.301,10.8l-0.699,0.7l-0.101,2.899h-0.8c0,0-0.3,0.2-0.9,0.9
				c-0.6,0.7-0.6,1.5-0.6,1.5l1.5,3.1h0.6l0.5,1.2l-1.199,28.799h-0.801l-1.1-0.6v-1.2h-6.6v2l-0.3,0.3v1h-1.2v-1.2h-1.6v38.199
				H551.29v-14.5H544.891L544.891,580.581z M301.998,552.282c0,0,0.2-0.1,0.301-0.2c0.1-0.1,0.199-0.4,0.199-0.4l3.601-0.1
				c-0.2,0.2,0,0.5,0,0.5l-3.8,7.8L301.998,552.282z M310.298,560.882v2.1h-0.199v15.8h-3.101v-1.5h-3.6l-0.2-15.6h-0.7v-0.5
				l4.101-8.8l4.199,8.6h-0.5V560.882z M311.099,560.482l-4.101-8.4c0,0,0.101,0,0.101-0.2s0-0.3,0-0.3h4V560.482z"/>
		</g>
	</g>
</g>
</svg>
